# Blender v2.69 (sub 0) OBJ File: ''
# www.blender.org
mtllib monolith.mtl
o monolith
v 0.401614 -2.277924 1.495186
v 0.401614 5.435740 1.495189
v -0.401614 5.435740 1.495189
v 0.401614 -2.277923 -1.495187
v -0.401614 -2.277923 -1.495187
v -0.401614 5.435740 -1.495184
v 0.401614 5.435740 -1.495184
v -0.401614 -2.277924 1.495186
vt 1.000000 0.000000
vt 1.000000 1.000000
vt 0.000000 1.000000
vt 0.000000 0.000000
vn 0.000000 -0.000000 1.000000
vn 1.000000 0.000000 0.000000
vn 0.000000 0.000000 -1.000000
vn -1.000000 0.000000 0.000000
vn 0.000000 1.000000 0.000000
vn 0.000000 -1.000000 -0.000000
usemtl None
s off
f 1/1/1 2/2/1 3/3/1
f 2/3/2 1/4/2 4/1/2
f 5/1/3 6/2/3 7/3/3
f 8/1/4 3/2/4 6/3/4
f 2/1/5 7/2/5 6/3/5
f 4/1/6 1/2/6 8/3/6
f 8/4/1 1/1/1 3/3/1
f 7/2/2 2/3/2 4/1/2
f 4/4/3 5/1/3 7/3/3
f 5/4/4 8/1/4 6/3/4
f 3/4/5 2/1/5 6/3/5
f 5/4/6 4/1/6 8/3/6
