# Blender v2.69 (sub 1) OBJ File: ''
# www.blender.org
mtllib cylinder.mtl
o Cylinder
v 0.000000 -0.025000 0.000000
v 0.000000 0.025000 0.000000
v 0.000000 -0.025000 -1.000000
v 0.000000 0.025000 -1.000000
v 0.382683 -0.025000 -0.923880
v 0.382683 0.025000 -0.923880
v 0.707107 -0.025000 -0.707107
v 0.707107 0.025000 -0.707107
v 0.923880 -0.025000 -0.382683
v 0.923880 0.025000 -0.382683
v 1.000000 -0.025000 0.000000
v 1.000000 0.025000 0.000000
v 0.923880 -0.025000 0.382684
v 0.923880 0.025000 0.382684
v 0.707107 -0.025000 0.707107
v 0.707107 0.025000 0.707107
v 0.382683 -0.025000 0.923880
v 0.382683 0.025000 0.923880
v 0.000000 -0.025000 1.000000
v 0.000000 0.025000 1.000000
v -0.382683 -0.025000 0.923880
v -0.382683 0.025000 0.923880
v -0.707107 -0.025000 0.707107
v -0.707107 0.025000 0.707107
v -0.923880 -0.025000 0.382684
v -0.923880 0.025000 0.382684
v -1.000000 -0.025000 -0.000000
v -1.000000 0.025000 -0.000000
v -0.923879 -0.025000 -0.382684
v -0.923879 0.025000 -0.382684
v -0.707107 -0.025000 -0.707107
v -0.707107 0.025000 -0.707107
v -0.382683 -0.025000 -0.923880
v -0.382683 0.025000 -0.923880
vt 0.000000 0.000000
vt 1.000000 0.000000
vt 1.000000 1.000000
vn 0.000000 -1.000000 0.000000
vn 0.000000 1.000000 0.000000
vn 0.195090 0.000000 -0.980785
vn 0.555570 0.000000 -0.831469
vn 0.831470 0.000000 -0.555570
vn 0.980785 0.000000 -0.195090
vn 0.980785 0.000000 0.195090
vn 0.831470 0.000000 0.555570
vn 0.555570 0.000000 0.831470
vn 0.195090 0.000000 0.980785
vn -0.195090 0.000000 0.980785
vn -0.555570 0.000000 0.831470
vn -0.831470 0.000000 0.555570
vn -0.980785 0.000000 0.195090
vn -0.980785 0.000000 -0.195090
vn -0.831469 0.000000 -0.555570
vn -0.555570 0.000000 -0.831470
vn -0.195090 0.000000 -0.980785
vn 0.555570 0.000000 -0.831470
vn 0.555570 0.000000 0.831469
vn -0.831470 0.000000 -0.555570
usemtl None
s off
f 1/1/1 3/2/1 5/3/1
f 2/1/2 6/2/2 4/3/2
f 3/1/3 4/2/3 6/3/3
f 1/1/1 5/2/1 7/3/1
f 2/1/2 8/2/2 6/3/2
f 5/1/4 6/2/4 8/3/4
f 1/1/1 7/2/1 9/3/1
f 2/1/2 10/2/2 8/3/2
f 7/1/5 8/2/5 10/3/5
f 1/1/1 9/2/1 11/3/1
f 2/1/2 12/2/2 10/3/2
f 9/1/6 10/2/6 12/3/6
f 1/1/1 11/2/1 13/3/1
f 2/1/2 14/2/2 12/3/2
f 11/1/7 12/2/7 14/3/7
f 1/1/1 13/2/1 15/3/1
f 2/1/2 16/2/2 14/3/2
f 13/1/8 14/2/8 16/3/8
f 1/1/1 15/2/1 17/3/1
f 2/1/2 18/2/2 16/3/2
f 15/1/9 16/2/9 18/3/9
f 1/1/1 17/2/1 19/3/1
f 2/1/2 20/2/2 18/3/2
f 17/1/10 18/2/10 20/3/10
f 1/1/1 19/2/1 21/3/1
f 2/1/2 22/2/2 20/3/2
f 19/1/11 20/2/11 22/3/11
f 1/1/1 21/2/1 23/3/1
f 2/1/2 24/2/2 22/3/2
f 21/1/12 22/2/12 23/3/12
f 1/1/1 23/2/1 25/3/1
f 2/1/2 26/2/2 24/3/2
f 23/1/13 24/2/13 26/3/13
f 1/1/1 25/2/1 27/3/1
f 2/1/2 28/2/2 26/3/2
f 25/1/14 26/2/14 28/3/14
f 1/1/1 27/2/1 29/3/1
f 2/1/2 30/2/2 28/3/2
f 27/1/15 28/2/15 30/3/15
f 1/1/1 29/2/1 31/3/1
f 2/1/2 32/2/2 30/3/2
f 29/1/16 30/2/16 32/3/16
f 1/1/1 31/2/1 33/3/1
f 2/1/2 34/2/2 32/3/2
f 31/1/17 32/2/17 34/3/17
f 1/1/1 33/2/1 3/3/1
f 2/1/2 4/2/2 34/3/2
f 33/1/18 34/2/18 3/3/18
f 5/1/3 3/2/3 6/3/3
f 7/1/19 5/2/19 8/3/19
f 9/1/5 7/2/5 10/3/5
f 11/1/6 9/2/6 12/3/6
f 13/1/7 11/2/7 14/3/7
f 15/1/8 13/2/8 16/3/8
f 17/1/20 15/2/20 18/3/20
f 19/1/10 17/2/10 20/3/10
f 21/1/11 19/2/11 22/3/11
f 34/1/18 4/2/18 3/3/18
f 25/1/13 23/2/13 26/3/13
f 27/1/14 25/2/14 28/3/14
f 29/1/15 27/2/15 30/3/15
f 31/1/21 29/2/21 32/3/21
f 33/1/17 31/2/17 34/3/17
f 22/1/12 24/2/12 23/3/12
