# Blender v2.69 (sub 0) OBJ File: ''
# www.blender.org
mtllib Esfera.mtl
o Esfera
v 2.370741 -4.033343 -1.722446
v 4.741481 -1.540601 -0.000000
v 3.835939 -1.540599 -2.786973
v 1.465198 -1.540599 -4.509418
v -0.905542 -4.033343 -2.786974
v -1.465198 -1.540599 -4.509418
v -2.370741 -4.033343 -1.722446
v -3.835939 -1.540599 -2.786973
v -2.930397 -4.033345 -0.000002
v -4.741481 -1.540601 -0.000000
v -2.370741 -4.033346 1.722442
v -3.835939 -1.540601 2.786973
v -0.905542 -4.033346 2.786971
v -1.465198 -1.540602 4.509417
v 0.905542 -4.033346 2.786971
v 1.465198 -1.540602 4.509417
v 2.370741 -4.033346 1.722442
v 3.835939 -1.540601 2.786973
v 2.930397 -4.033345 -0.000002
v 4.741481 1.540601 0.000000
v 3.835939 1.540601 -2.786973
v 1.465198 1.540602 -4.509417
v -1.465198 1.540602 -4.509417
v -3.835939 1.540601 -2.786973
v -4.741481 1.540601 0.000000
v -3.835939 1.540599 2.786973
v -1.465198 1.540599 4.509418
v 1.465198 1.540599 4.509418
v 3.835939 1.540599 2.786973
v 2.930397 4.033345 0.000002
v 2.370741 4.033346 -1.722442
v 0.905542 4.033346 -2.786971
v -0.905542 4.033346 -2.786971
v -2.370741 4.033346 -1.722442
v -2.930397 4.033345 0.000002
v -2.370741 4.033343 1.722446
v -0.905542 4.033343 2.786974
v 0.905542 4.033343 2.786974
v 2.370741 4.033343 1.722446
v 0.000000 -4.985488 -0.000002
v 0.000000 4.985488 0.000002
v 0.905542 -4.033343 -2.786974
vt 0.100000 0.200000
vt 0.000000 0.400000
vt 0.100000 0.400000
vt 0.200000 0.400000
vt 0.300000 0.200000
vt 0.300000 0.400000
vt 0.400000 0.200000
vt 0.400000 0.400000
vt 0.500000 0.200000
vt 0.500000 0.400000
vt 0.600000 0.200000
vt 0.600000 0.400000
vt 0.700000 0.200000
vt 0.700000 0.400000
vt 0.800000 0.200000
vt 0.800000 0.400000
vt 0.900000 0.200000
vt 0.900000 0.400000
vt 1.000000 0.200000
vt 1.000000 0.400000
vt 0.000000 0.600000
vt 0.100000 0.600000
vt 0.200000 0.600000
vt 0.300000 0.600000
vt 0.400000 0.600000
vt 0.500000 0.600000
vt 0.600000 0.600000
vt 0.700000 0.600000
vt 0.800000 0.600000
vt 0.900000 0.600000
vt 1.000000 0.600000
vt 0.000000 0.800000
vt 0.100000 0.800000
vt 0.200000 0.800000
vt 0.300000 0.800000
vt 0.400000 0.800000
vt 0.500000 0.800000
vt 0.600000 0.800000
vt 0.700000 0.800000
vt 0.800000 0.800000
vt 0.900000 0.800000
vt 1.000000 0.800000
vt 0.000000 0.000000
vt 0.000000 0.200000
vt 0.000000 1.000000
vt 0.100000 0.000000
vt 0.200000 0.200000
vt 0.100000 1.000000
vt 0.200000 0.000000
vt 0.200000 1.000000
vt 0.300000 0.000000
vt 0.300000 1.000000
vt 0.400000 0.000000
vt 0.400000 1.000000
vt 0.500000 0.000000
vt 0.500000 1.000000
vt 0.600000 0.000000
vt 0.600000 1.000000
vt 0.700000 0.000000
vt 0.700000 1.000000
vt 0.800000 0.000000
vt 0.800000 1.000000
vt 0.900000 0.000000
vt 0.900000 1.000000
vn -0.505814 0.780419 0.367473
vn -0.956267 0.292459 0.000000
vn -0.773614 0.292459 0.562059
vn -0.295480 0.292459 0.909452
vn 0.193182 0.780419 0.594623
vn 0.295480 0.292459 0.909452
vn 0.505814 0.780419 0.367473
vn 0.773614 0.292459 0.562059
vn 0.625202 0.780419 0.000000
vn 0.956267 0.292459 0.000000
vn 0.505814 0.780419 -0.367473
vn 0.773614 0.292459 -0.562059
vn 0.193182 0.780419 -0.594623
vn 0.295480 0.292459 -0.909452
vn -0.193182 0.780419 -0.594623
vn -0.295480 0.292459 -0.909452
vn -0.505814 0.780419 -0.367473
vn -0.773614 0.292459 -0.562059
vn -0.625202 0.780419 0.000000
vn -0.956267 -0.292459 0.000000
vn -0.773614 -0.292459 0.562059
vn -0.295480 -0.292459 0.909452
vn 0.295480 -0.292459 0.909452
vn 0.773614 -0.292459 0.562059
vn 0.956267 -0.292459 0.000000
vn 0.773614 -0.292459 -0.562059
vn 0.295480 -0.292459 -0.909452
vn -0.295480 -0.292459 -0.909452
vn -0.773614 -0.292459 -0.562059
vn -0.625202 -0.780419 0.000000
vn -0.505814 -0.780419 0.367473
vn -0.193182 -0.780419 0.594623
vn 0.193182 -0.780419 0.594623
vn 0.505814 -0.780419 0.367473
vn 0.625202 -0.780419 0.000000
vn 0.505814 -0.780419 -0.367473
vn 0.193182 -0.780419 -0.594623
vn -0.193182 -0.780419 -0.594623
vn -0.505814 -0.780419 -0.367473
vn 0.000000 1.000000 0.000000
vn 0.000000 -1.000000 0.000000
vn -0.193182 0.780419 0.594623
usemtl None
s 1
f 1/1/1 2/2/2 3/3/3
f 4/4/4 1/1/1 3/3/3
f 5/5/5 4/4/4 6/6/6
f 7/7/7 6/6/6 8/8/8
f 9/9/9 8/8/8 10/10/10
f 11/11/11 10/10/10 12/12/12
f 13/13/13 12/12/12 14/14/14
f 15/15/15 14/14/14 16/16/16
f 17/17/17 16/16/16 18/18/18
f 19/19/19 17/17/17 2/20/2
f 3/3/3 20/21/20 21/22/21
f 4/4/4 21/22/21 22/23/22
f 6/6/6 22/23/22 23/24/23
f 8/8/8 23/24/23 24/25/24
f 10/10/10 24/25/24 25/26/25
f 12/12/12 25/26/25 26/27/26
f 14/14/14 26/27/26 27/28/27
f 16/16/16 27/28/27 28/29/28
f 18/18/18 28/29/28 29/30/29
f 2/20/2 29/30/29 20/31/20
f 21/22/21 30/32/30 31/33/31
f 22/23/22 31/33/31 32/34/32
f 23/24/23 32/34/32 33/35/33
f 24/25/24 23/24/23 34/36/34
f 25/26/25 34/36/34 35/37/35
f 26/27/26 35/37/35 36/38/36
f 27/28/27 36/38/36 37/39/37
f 28/29/28 37/39/37 38/40/38
f 29/30/29 38/40/38 39/41/39
f 20/31/20 39/41/39 30/42/30
f 1/1/1 40/43/40 19/44/19
f 41/45/41 31/33/31 30/32/30
f 40/46/40 1/1/1 42/47/42
f 41/48/41 32/34/32 31/33/31
f 5/5/5 40/49/40 42/47/42
f 41/50/41 33/35/33 32/34/32
f 7/7/7 40/51/40 5/5/5
f 41/52/41 34/36/34 33/35/33
f 9/9/9 40/53/40 7/7/7
f 41/54/41 35/37/35 34/36/34
f 11/11/11 40/55/40 9/9/9
f 41/56/41 36/38/36 35/37/35
f 13/13/13 40/57/40 11/11/11
f 41/58/41 37/39/37 36/38/36
f 15/15/15 40/59/40 13/13/13
f 41/60/41 38/40/38 37/39/37
f 17/17/17 40/61/40 15/15/15
f 41/62/41 39/41/39 38/40/38
f 19/19/19 40/63/40 17/17/17
f 41/64/41 30/42/30 39/41/39
f 2/2/2 1/1/1 19/44/19
f 2/20/2 17/17/17 18/18/18
f 42/47/42 4/4/4 5/5/5
f 5/5/5 6/6/6 7/7/7
f 7/7/7 8/8/8 9/9/9
f 9/9/9 10/10/10 11/11/11
f 11/11/11 12/12/12 13/13/13
f 13/13/13 14/14/14 15/15/15
f 15/15/15 16/16/16 17/17/17
f 2/2/2 20/21/20 3/3/3
f 3/3/3 21/22/21 4/4/4
f 4/4/4 22/23/22 6/6/6
f 6/6/6 23/24/23 8/8/8
f 8/8/8 24/25/24 10/10/10
f 10/10/10 25/26/25 12/12/12
f 12/12/12 26/27/26 14/14/14
f 14/14/14 27/28/27 16/16/16
f 16/16/16 28/29/28 18/18/18
f 18/18/18 29/30/29 2/20/2
f 20/21/20 30/32/30 21/22/21
f 21/22/21 31/33/31 22/23/22
f 22/23/22 32/34/32 23/24/23
f 1/1/1 4/4/4 42/47/42
f 24/25/24 34/36/34 25/26/25
f 25/26/25 35/37/35 26/27/26
f 26/27/26 36/38/36 27/28/27
f 27/28/27 37/39/37 28/29/28
f 28/29/28 38/40/38 29/30/29
f 29/30/29 39/41/39 20/31/20
f 34/36/34 23/24/23 33/35/33
