# Blender v2.69 (sub 1) OBJ File: ''
# www.blender.org
mtllib cube.mtl
o Cube
v -1.000000 -1.000000 1.000000
v -1.000000 -1.000000 -1.000000
v 1.000000 -1.000000 -1.000000
v 1.000000 -1.000000 1.000000
v -1.000000 1.000000 1.000000
v -1.000000 1.000000 -1.000000
v 1.000000 1.000000 -1.000000
v 1.000000 1.000000 1.000000
vt 0.000000 0.000000
vt 1.000000 0.000000
vt 1.000000 1.000000
vt 0.000000 1.000000
vn -1.000000 0.000000 0.000000
vn 0.000000 0.000000 -1.000000
vn 1.000000 0.000000 0.000000
vn 0.000000 0.000000 1.000000
vn 0.000000 -1.000000 0.000000
vn 0.000000 1.000000 0.000000
usemtl None
s off
f 5/1/1 6/2/1 2/3/1
f 6/1/2 7/2/2 3/3/2
f 7/1/3 8/2/3 4/3/3
f 8/1/4 5/2/4 1/3/4
f 1/1/5 2/2/5 3/3/5
f 8/1/6 7/2/6 6/3/6
f 1/4/1 5/1/1 2/3/1
f 2/4/2 6/1/2 3/3/2
f 3/4/3 7/1/3 4/3/3
f 4/4/4 8/1/4 1/3/4
f 4/4/5 1/1/5 3/3/5
f 5/4/6 8/1/6 6/3/6
