# Blender v2.69 (sub 0) OBJ File: ''
# www.blender.org
o stone4_Group1.003
v -1.024542 1.006257 0.316129
v -1.038814 0.859333 0.525205
v -0.637607 1.412366 0.423581
v -0.886515 1.124706 -0.210808
v -1.120328 0.891474 -0.726774
v -0.747575 0.987875 -0.692058
v -0.990461 0.779997 -0.928181
v -0.331131 0.816687 -1.042044
v -0.201179 1.211388 -0.800667
v -0.396480 0.505821 -1.250049
v 0.786806 0.572725 -1.212924
v 0.811554 0.431080 -1.187124
v 0.526579 0.611597 -1.259107
v 0.752804 0.698845 -1.147354
v 0.970625 0.923636 -0.602154
v 0.959201 0.970042 -0.026605
v 0.811996 0.785023 0.457535
v 0.985013 0.153805 0.684879
v 1.083050 0.194842 0.016548
v 1.077222 0.719711 -0.706359
v 1.063051 0.902783 -0.442025
v 0.930508 0.079811 -0.941197
v -0.227642 2.011006 0.161068
v -0.031692 2.076896 0.022746
v -0.249103 1.897631 0.408510
v -0.533248 1.766228 0.105958
v 0.534737 1.684486 0.235371
v 0.298776 2.039443 0.120612
v 0.175498 2.045328 -0.162504
v 0.139651 2.052135 0.247643
v 0.237825 1.139259 0.894280
v 0.309850 1.847394 0.445332
v 0.507553 1.861839 0.023335
v 0.735496 1.403759 -0.303785
v 0.600181 1.220421 -0.628189
v 0.993342 0.523497 -0.903053
v 0.330452 0.966473 -1.047130
v 0.155752 1.295399 -0.808521
v 0.173759 1.690573 -0.589698
v 0.330944 1.847789 -0.398739
v 0.428311 1.929296 -0.125245
v 0.009124 1.917076 -0.418657
v -0.183094 1.981463 -0.202169
v -0.331323 1.781328 -0.339771
v -0.111363 1.620129 -0.625667
v -0.633757 1.193905 -0.502716
v -0.723802 1.450276 0.123340
v -0.433134 1.579999 0.529158
v -0.162313 1.695402 0.627485
v 0.062824 1.703804 0.670096
v 0.095280 1.943670 0.467347
v 0.114049 1.101837 0.951147
v -0.148902 1.005419 0.943085
v -0.283686 0.540427 1.394048
v 0.055050 0.550257 1.443096
v -0.255829 0.276899 1.494280
v -0.817084 0.646584 0.829622
v -0.918181 0.357950 1.077003
v -0.835723 0.184257 1.229603
v -0.792008 -0.069313 1.212487
v -1.081440 0.154155 0.964780
v -1.041786 -0.110804 0.968403
v -1.224022 -0.127408 0.571229
v -1.339634 0.197443 0.322075
v -1.434358 -0.074696 -0.157897
v -1.516619 0.387266 -0.121554
v -1.412552 -0.067077 -0.445973
v -1.496307 0.285166 -0.617882
v -1.315521 -0.089175 -0.661744
v -1.114140 0.232864 -1.059483
v -1.130427 -0.127465 -0.875226
v -0.863534 -0.144172 -1.111216
v -0.436382 -0.154868 -1.270777
v -0.461985 0.186847 -1.330152
v 0.502501 0.101269 -1.333509
v -0.065355 -0.148723 -1.305533
v 0.502321 -0.089354 -1.300379
v 0.651644 -0.089060 -1.218573
v 1.035534 -0.120475 -0.805166
v 0.300101 0.337162 -1.310192
v 0.031515 0.969658 -1.037273
v -1.081960 0.584654 -1.019799
v -1.371783 0.591244 -0.754729
v -1.461594 0.679567 -0.383520
v -1.228921 0.745744 0.156868
v -1.070826 1.002199 -0.237609
v -1.186520 0.433355 0.577858
v -0.293479 -0.049050 1.404757
v 0.130870 -0.047814 1.453492
v 0.056264 0.269296 1.530309
v 0.356705 0.262504 1.440786
v 0.344639 0.517504 1.369393
v 0.729279 0.220554 1.082569
v 1.125779 -0.114075 0.750955
v 0.557976 -0.050607 1.305614
v 1.242279 -0.145846 0.363094
vt 0.608179 0.618393
vt 0.588580 0.670660
vt 0.522144 0.573853
vt 0.730348 0.491010
vt 0.678123 0.448217
vt 0.747725 0.442141
vt 0.668031 0.337436
vt 0.731938 0.286627
vt 0.490996 0.182756
vt 0.539526 0.198640
vt 0.494103 0.213479
vt 0.418265 0.286302
vt 0.540747 0.281292
vt 0.333008 0.384308
vt 0.279993 0.445298
vt 0.104144 0.426077
vt 0.193930 0.268304
vt 0.397357 0.247522
vt 0.382065 0.300430
vt 0.400998 0.097653
vt 0.421536 0.452771
vt 0.353492 0.565367
vt 0.446637 0.447544
vt 0.434473 0.377759
vt 0.419167 0.191723
vt 0.482074 0.158669
vt 0.536937 0.360378
vt 0.466365 0.339724
vt 0.509350 0.411611
vt 0.481981 0.425393
vt 0.463567 0.442723
vt 0.483287 0.454326
vt 0.507764 0.443305
vt 0.508332 0.469865
vt 0.488026 0.475467
vt 0.462669 0.466559
vt 0.537078 0.463887
vt 0.539091 0.424805
vt 0.622715 0.458999
vt 0.636368 0.529875
vt 0.558187 0.544545
vt 0.524235 0.512334
vt 0.486961 0.553661
vt 0.463201 0.535554
vt 0.483511 0.514168
vt 0.441510 0.522933
vt 0.457840 0.498574
vt 0.467259 0.481164
vt 0.493731 0.494514
vt 0.438621 0.487900
vt 0.374199 0.594810
vt 0.402337 0.636189
vt 0.347289 0.756689
vt 0.286222 0.714242
vt 0.520334 0.728315
vt 0.504963 0.812837
vt 0.305627 0.811129
vt 0.463823 0.875072
vt 0.452181 0.957102
vt 0.563155 0.875071
vt 0.573021 0.957102
vt 0.716548 0.910292
vt 0.735480 0.775431
vt 0.909582 0.725147
vt 0.788804 0.662782
vt 0.957898 0.631306
vt 0.856591 0.560318
vt 0.990990 0.550490
vt 0.872044 0.419129
vt 0.999902 0.445658
vt 0.976768 0.315092
vt 0.895615 0.162272
vt 0.804997 0.241022
vt 0.576515 0.096167
vt 0.786707 0.073082
vt 0.582394 0.009081
vt 0.519696 0.002116
vt 0.311358 0.034840
vt 0.606872 0.162553
vt 0.597202 0.316578
vt 0.799467 0.434378
vt 0.802078 0.512611
vt 0.766836 0.574257
vt 0.675748 0.652845
vt 0.684063 0.560568
vt 0.636064 0.766522
vt 0.278313 0.902109
vt 0.158755 0.819525
vt 0.241515 0.765571
vt 0.183433 0.711262
vt 0.237028 0.669980
vt 0.116984 0.568303
vt 0.000098 0.426236
vt 0.070189 0.691242
vt 0.035227 0.286331
vt 0.594700 0.386517
vn -0.784997 0.585253 0.203009
vn -0.717917 0.455275 0.526566
vn -0.707999 0.541398 0.453413
vn -0.468062 0.775079 -0.424451
vn -0.259041 0.814570 -0.518967
vn -0.303446 0.653706 -0.693197
vn -0.184515 0.575396 -0.796777
vn -0.097629 0.411786 -0.906003
vn 0.550951 0.256539 -0.794092
vn 0.074618 0.357646 -0.930845
vn 0.469680 0.597797 -0.649586
vn 0.640370 0.610950 -0.465407
vn 0.177313 0.619495 -0.764672
vn 0.905118 0.340495 0.254494
vn 0.789788 0.398144 0.466536
vn 0.839290 0.431104 0.331187
vn 0.979034 0.203650 -0.000397
vn 0.913053 0.247688 -0.323893
vn 0.926542 0.367229 -0.081179
vn 0.872585 -0.050783 -0.485763
vn 0.802149 0.427869 0.416456
vn 0.465255 0.510758 0.722922
vn 0.792291 0.602313 0.097201
vn 0.718131 0.567461 -0.402753
vn 0.895932 0.008698 -0.444075
vn 0.702384 -0.065249 -0.708762
vn 0.126926 0.554247 -0.822596
vn 0.503922 0.565752 -0.652608
vn 0.244758 0.523850 -0.815851
vn 0.460341 0.660756 -0.592792
vn 0.633839 0.733238 -0.246132
vn 0.176031 0.936247 -0.304025
vn -0.100009 0.769646 -0.630543
vn -0.417585 0.841060 -0.343822
vn -0.142979 0.988647 -0.045778
vn 0.451491 0.879330 0.151250
vn -0.597644 0.618000 -0.510727
vn -0.286325 0.521531 -0.803735
vn -0.577654 0.591968 -0.561968
vn -0.658345 0.723838 -0.206397
vn -0.833399 0.545793 0.086642
vn -0.756645 0.652364 0.043275
vn -0.584582 0.503922 0.635823
vn -0.306925 0.528947 0.791192
vn -0.438643 0.736106 0.515427
vn 0.113712 0.524003 0.844081
vn 0.079043 0.783410 0.616413
vn 0.120212 0.937773 0.325724
vn -0.438551 0.886441 0.147801
vn 0.582385 0.563158 0.586169
vn 0.017457 0.559191 0.828822
vn -0.314219 0.552019 0.772332
vn -0.329569 0.520524 0.787652
vn 0.056978 0.500809 0.863643
vn -0.550401 0.548753 0.629200
vn -0.647542 0.461592 0.606281
vn -0.268136 0.059389 0.961516
vn -0.569048 0.122593 0.813074
vn -0.549494 -0.149089 0.822088
vn -0.844386 0.134709 0.518479
vn -0.806353 -0.112741 0.580590
vn -0.932154 -0.085776 0.351755
vn -0.933439 -0.003174 0.358684
vn -0.979653 -0.172514 0.102562
vn -0.975311 0.100497 0.196539
vn -0.947804 -0.274303 -0.162559
vn -0.933805 -0.085940 -0.347240
vn -0.795093 -0.319086 -0.515763
vn -0.591083 -0.072420 -0.803339
vn -0.705914 -0.296923 -0.643057
vn -0.450742 -0.179620 -0.874396
vn -0.202701 -0.147726 -0.968034
vn -0.190985 0.033113 -0.981017
vn 0.230232 -0.044710 -0.972076
vn -0.082306 0.075752 -0.993724
vn 0.256517 -0.165737 -0.952224
vn 0.610420 -0.140381 -0.779539
vn 0.912663 0.237342 -0.332739
vn -0.053987 0.171972 -0.983612
vn -0.125614 0.506668 -0.852931
vn -0.472060 0.350352 -0.808924
vn -0.776757 0.347209 -0.525407
vn -0.860805 0.507736 -0.034455
vn -0.824732 0.501175 0.261940
vn -0.617176 0.786767 -0.005676
vn -0.838557 0.253395 0.482223
vn -0.242482 -0.230796 0.942303
vn 0.127442 -0.216732 0.967877
vn 0.069582 0.033753 0.996979
vn 0.465743 0.082736 0.881008
vn 0.499771 0.434950 0.748985
vn 0.741783 0.301828 0.598834
vn 0.817104 0.447715 0.363169
vn 0.606973 0.044126 0.793496
vn 0.877541 0.471581 0.086797
vn -0.338908 0.522813 -0.782128
s 1
f 1/1/1 2/2/2 3/3/3
f 5/4/4 6/5/5 7/6/6
f 8/7/7 10/8/8 7/6/6
f 11/9/9 13/10/10 14/11/11
f 15/12/12 14/11/11 37/13/13
f 16/14/14 17/15/15 18/16/16
f 19/17/17 20/18/18 21/19/19
f 19/17/17 22/20/20 20/18/18
f 17/15/15 27/21/21 31/22/22
f 27/21/21 16/14/14 33/23/23
f 33/23/23 16/14/14 21/19/19
f 33/23/23 21/19/19 34/24/24
f 34/24/24 21/19/19 15/12/12
f 21/19/19 20/18/18 15/12/12
f 20/18/18 11/9/9 15/12/12
f 11/9/9 36/25/25 12/26/26
f 38/27/27 35/28/28 37/13/13
f 38/27/27 39/29/29 40/30/30
f 40/30/30 34/24/24 35/28/28
f 41/31/31 40/30/30 29/32/32
f 41/31/31 33/23/23 34/24/24
f 40/30/30 42/33/33 29/32/32
f 29/32/32 43/34/34 24/35/35
f 29/32/32 24/35/35 28/36/36
f 29/32/32 42/33/33 43/34/34
f 42/33/33 44/37/37 43/34/34
f 42/33/33 45/38/38 44/37/37
f 45/38/38 46/39/39 44/37/37
f 46/39/39 4/40/40 44/37/37
f 1/1/1 47/41/41 4/40/40
f 4/40/40 47/41/41 26/42/42
f 26/42/42 43/34/34 44/37/37
f 3/3/3 48/43/43 26/42/42
f 1/1/1 3/3/3 47/41/41
f 48/43/43 49/44/44 25/45/45
f 49/44/44 50/46/46 25/45/45
f 51/47/47 30/48/48 23/49/49
f 30/48/48 24/35/35 23/49/49
f 51/47/47 50/46/46 32/50/50
f 51/47/47 32/50/50 30/48/48
f 32/50/50 50/46/46 52/51/51
f 53/52/52 54/53/53 55/54/54
f 54/53/53 53/52/52 57/55/55
f 54/53/53 58/56/56 56/57/57
f 59/58/58 60/59/59 56/57/57
f 61/60/60 59/58/58 58/56/56
f 59/58/58 61/60/60 60/59/59
f 62/61/61 61/60/60 63/62/62
f 63/62/62 64/63/63 65/64/64
f 65/64/64 66/65/65 67/66/66
f 67/66/66 68/67/67 69/68/68
f 69/68/68 68/67/67 70/69/69
f 71/70/70 70/69/69 72/71/71
f 72/71/71 70/69/69 73/72/72
f 73/72/72 74/73/73 75/74/74
f 76/75/75 75/74/74 77/76/76
f 77/76/76 75/74/74 78/77/77
f 78/77/77 22/20/20 79/78/78
f 22/20/20 12/26/26 36/25/25
f 22/20/20 78/77/77 12/26/26
f 12/26/26 78/77/77 75/74/74
f 12/26/26 75/74/74 11/9/9
f 75/74/74 80/79/79 13/10/10
f 13/10/10 80/79/79 8/7/7
f 13/10/10 8/7/7 81/80/80
f 13/10/10 81/80/80 37/13/13
f 80/79/79 75/74/74 10/8/8
f 74/73/73 70/69/69 82/81/81
f 82/81/81 70/69/69 83/82/82
f 82/81/81 83/82/82 5/4/4
f 84/83/83 83/82/82 68/67/67
f 84/83/83 85/84/84 86/85/85
f 84/83/83 86/85/85 5/4/4
f 86/85/85 4/40/40 5/4/4
f 85/84/84 66/65/65 87/86/86
f 85/84/84 87/86/86 2/2/2
f 2/2/2 87/86/86 57/55/55
f 87/86/86 64/63/63 58/56/56
f 87/86/86 66/65/65 64/63/63
f 88/87/87 89/88/88 56/57/57
f 90/89/89 91/90/90 92/91/91
f 90/89/89 55/54/54 56/57/57
f 92/91/91 31/22/22 52/51/51
f 31/22/22 92/91/91 17/15/15
f 93/92/92 18/16/16 17/15/15
f 93/92/92 92/91/91 91/90/90
f 18/16/16 19/17/17 21/19/19
f 18/16/16 93/92/92 94/93/93
f 95/94/94 93/92/92 91/90/90
f 96/95/95 19/17/17 18/16/16
f 53/52/52 48/43/43 57/55/55
f 46/39/39 8/7/7 6/5/5
f 9/96/96 38/27/27 81/80/80
f 43/34/34 23/49/49 24/35/35
f 79/78/78 22/20/20 19/17/17
f 2/2/2 57/55/55 3/3/3
f 4/40/40 86/85/85 1/1/1
f 28/36/36 41/31/31 29/32/32
f 81/80/80 8/7/7 9/96/96
f 10/8/8 82/81/81 7/6/6
f 7/6/6 6/5/5 8/7/7
f 21/19/19 16/14/14 18/16/16
f 22/20/20 36/25/25 20/18/18
f 25/45/45 23/49/49 26/42/42
f 41/31/31 28/36/36 33/23/23
f 27/21/21 17/15/15 16/14/14
f 35/28/28 34/24/24 15/12/12
f 11/9/9 20/18/18 36/25/25
f 11/9/9 14/11/11 15/12/12
f 37/13/13 81/80/80 38/27/27
f 35/28/28 15/12/12 37/13/13
f 38/27/27 45/38/38 39/29/29
f 35/28/28 38/27/27 40/30/30
f 39/29/29 42/33/33 40/30/30
f 34/24/24 40/30/30 41/31/31
f 45/38/38 42/33/33 39/29/29
f 45/38/38 38/27/27 9/96/96
f 46/39/39 45/38/38 9/96/96
f 46/39/39 9/96/96 8/7/7
f 4/40/40 46/39/39 6/5/5
f 44/37/37 4/40/40 26/42/42
f 47/41/41 3/3/3 26/42/42
f 43/34/34 26/42/42 23/49/49
f 48/43/43 25/45/45 26/42/42
f 49/44/44 52/51/51 50/46/46
f 50/46/46 51/47/47 25/45/45
f 25/45/45 51/47/47 23/49/49
f 30/48/48 28/36/36 24/35/35
f 32/50/50 28/36/36 30/48/48
f 32/50/50 33/23/23 28/36/36
f 31/22/22 32/50/50 52/51/51
f 52/51/51 49/44/44 53/52/52
f 52/51/51 53/52/52 55/54/54
f 58/56/56 54/53/53 57/55/55
f 58/56/56 59/58/58 56/57/57
f 60/59/59 88/87/87 56/57/57
f 61/60/60 62/61/61 60/59/59
f 61/60/60 64/63/63 63/62/62
f 64/63/63 66/65/65 65/64/64
f 66/65/65 68/67/67 67/66/66
f 71/70/70 69/68/68 70/69/69
f 70/69/69 74/73/73 73/72/72
f 76/75/75 73/72/72 75/74/74
f 11/9/9 75/74/74 13/10/10
f 80/79/79 10/8/8 8/7/7
f 37/13/13 14/11/11 13/10/10
f 75/74/74 74/73/73 10/8/8
f 10/8/8 74/73/73 82/81/81
f 70/69/69 68/67/67 83/82/82
f 7/6/6 82/81/81 5/4/4
f 5/4/4 83/82/82 84/83/83
f 85/84/84 84/83/83 66/65/65
f 4/40/40 6/5/5 5/4/4
f 85/84/84 1/1/1 86/85/85
f 1/1/1 85/84/84 2/2/2
f 87/86/86 58/56/56 57/55/55
f 64/63/63 61/60/60 58/56/56
f 84/83/83 68/67/67 66/65/65
f 89/88/88 90/89/89 56/57/57
f 91/90/90 90/89/89 89/88/88
f 55/54/54 90/89/89 92/91/91
f 55/54/54 54/53/53 56/57/57
f 55/54/54 92/91/91 52/51/51
f 92/91/91 93/92/92 17/15/15
f 93/92/92 95/94/94 94/93/93
f 89/88/88 95/94/94 91/90/90
f 94/93/93 96/95/95 18/16/16
f 48/43/43 53/52/52 49/44/44
f 48/43/43 3/3/3 57/55/55
f 33/23/23 32/50/50 27/21/21
f 96/95/95 79/78/78 19/17/17
f 27/21/21 32/50/50 31/22/22
