# Blender v2.69 (sub 0) OBJ File: ''
# www.blender.org
o stone2_Group1.001
v -0.319632 1.831337 0.173733
v 0.401744 1.788937 -0.657664
v 0.039860 1.727947 0.693181
v 0.340159 1.842281 0.112964
v 0.561268 0.749525 -1.655884
v -0.167488 0.795799 -1.506829
v -1.392638 0.631528 -0.581348
v -0.914670 1.385924 0.544243
v -0.343699 1.382974 1.029091
v -0.505151 0.449937 1.433851
v 1.018542 0.814106 0.759627
v 1.227658 0.902346 -0.869586
v 1.025875 -0.063182 -1.392693
v -0.369587 -0.139857 -1.563153
v -1.356874 -0.119231 -0.866478
v -1.605322 -0.082539 0.290607
v -1.470582 0.510900 0.564775
v 1.107543 -0.087062 1.177922
v 1.485235 -0.146578 -0.038587
v 1.424079 -0.140439 0.535814
v 0.396457 -0.036141 1.582497
v -1.197963 -0.078616 1.153380
vt 0.512305 0.387077
vt 0.612698 0.214390
vt 0.708614 0.314035
vt 0.543589 0.628331
vt 0.437191 0.618971
vt 0.515078 0.523832
vt 0.365512 0.798327
vt 0.437123 0.536745
vt 0.457736 0.463714
vt 0.248978 0.457151
vt 0.427848 0.224889
vt 0.892560 0.211047
vt 0.986285 0.557093
vt 0.779558 0.570826
vt 0.802749 0.869419
vt 0.655014 0.790509
vt 0.142484 0.765760
vt 0.003415 0.516530
vt 0.118753 0.152782
vt 0.547140 -0.000109
vt 0.019939 0.308391
vt 0.537331 0.958196
vn 0.185156 0.904050 -0.385205
vn 0.263283 0.314951 -0.911832
vn -0.364574 0.451613 -0.814295
vn -0.670461 0.680135 0.296426
vn -0.083895 0.569475 0.817682
vn -0.373028 0.927427 -0.026185
vn -0.270394 0.249519 0.929838
vn 0.137822 0.808588 0.571978
vn 0.412519 0.898984 0.147008
vn 0.721549 0.496017 0.482986
vn 0.855464 0.422559 -0.299326
vn -0.344343 0.062086 -0.936789
vn -0.791258 0.162226 -0.589571
vn -0.813074 0.426008 -0.396710
vn -0.989288 0.115196 0.089660
vn -0.874386 0.342662 0.343486
vn 0.231518 0.363489 0.902372
vn 0.675750 0.364210 0.640869
vn 0.974142 0.225247 -0.017629
vn 0.680760 -0.025852 -0.732050
vn 0.918421 0.319193 0.233707
vn -0.650315 0.208134 0.730596
s 1
f 2/1/1 5/2/2 6/3/3
f 8/4/4 9/5/5 1/6/6
f 9/5/5 10/7/7 3/8/8
f 4/9/9 11/10/10 12/11/11
f 12/11/11 5/2/2 2/1/1
f 5/2/2 14/12/12 6/3/3
f 6/3/3 14/12/12 15/13/13
f 7/14/14 15/13/13 16/15/15
f 8/4/4 17/16/16 10/7/7
f 11/10/10 21/17/17 18/18/18
f 21/17/17 11/10/10 3/8/8
f 12/11/11 19/19/19 13/20/20
f 19/19/19 12/11/11 20/21/21
f 20/21/21 11/10/10 18/18/18
f 21/17/17 10/7/7 22/22/22
f 22/22/22 17/16/16 16/15/15
f 4/9/9 3/8/8 11/10/10
f 6/3/3 7/14/14 2/1/1
f 1/6/6 3/8/8 4/9/9
f 1/6/6 4/9/9 2/1/1
f 8/4/4 7/14/14 17/16/16
f 1/6/6 7/14/14 8/4/4
f 1/6/6 2/1/1 7/14/14
f 9/5/5 3/8/8 1/6/6
f 2/1/1 4/9/9 12/11/11
f 12/11/11 13/20/20 5/2/2
f 14/12/12 5/2/2 13/20/20
f 7/14/14 6/3/3 15/13/13
f 17/16/16 7/14/14 16/15/15
f 10/7/7 9/5/5 8/4/4
f 21/17/17 3/8/8 10/7/7
f 12/11/11 11/10/10 20/21/21
f 10/7/7 17/16/16 22/22/22
