# Blender v2.69 (sub 0) OBJ File: ''
# www.blender.org
o stone3_Group1.002
v 0.814146 0.734512 -1.201200
v 0.901855 0.583875 -1.155411
v 0.626265 0.751106 -1.274134
v 0.769403 0.526963 -1.298351
v 0.585857 0.594761 -1.342368
v 0.026780 1.338009 -0.907203
v 0.649551 0.881996 -1.159817
v 0.577488 1.249947 -0.612781
v 1.072572 0.926895 -0.676472
v -0.852020 0.917782 -0.376777
v -0.873249 0.660901 -0.788902
v -1.206223 0.638444 -0.285356
v 0.276383 0.803848 1.161352
v 0.857712 0.177004 1.079334
v 1.135074 0.189632 0.757620
v -0.868446 0.206557 1.144840
v -0.313190 0.559715 1.239784
v -0.707707 1.210285 0.544987
v -1.009333 0.599380 0.772934
v 0.967770 0.804048 0.356590
v 0.755104 0.994152 0.495251
v 0.997364 0.953555 -0.080871
v 1.307239 0.233644 0.279543
v 1.211545 -0.092833 -0.563480
v 1.092623 0.722184 -0.841492
v 1.306115 0.386672 -0.163849
v 0.999817 -0.074402 -0.925587
v 0.178078 1.565063 0.499146
v 0.310526 1.064995 0.969406
v -0.007952 1.700651 -0.027442
v 0.089038 1.663481 0.353131
v 0.191566 1.646448 -0.287895
v -0.025032 1.579542 -0.422134
v -0.155125 1.634555 0.237193
v -0.425390 1.489454 0.229599
v -0.376448 1.536555 0.420941
v -0.779995 1.238442 0.356526
v -1.039707 0.975914 0.405901
v -1.247887 0.718056 0.276581
v -1.255404 0.428206 0.605236
v -1.331696 0.420952 0.350922
v -1.123854 0.276642 0.856495
v -0.906874 -0.058844 1.062720
v -0.479634 -0.022324 1.318004
v -0.502687 0.205286 1.342692
v -1.130158 -0.085541 0.790123
v -1.347172 -0.081768 0.360470
v -1.365593 0.458187 0.065072
v -1.386837 -0.088155 -0.137198
v -1.335960 0.461967 -0.228756
v -1.206320 0.425624 -0.569065
v -1.207038 -0.110380 -0.618986
v -0.934501 0.407052 -0.945380
v -1.058348 0.923258 0.160961
v -0.118624 0.391782 1.376383
v -0.075787 1.015243 1.063812
v -0.023262 1.369579 0.837502
v -0.217953 1.513712 0.611231
v 0.034904 1.527634 0.649445
v 0.182745 1.392168 0.801525
v 0.363405 1.688621 0.090251
v 0.613514 1.499244 0.005903
v 0.498859 1.583738 -0.107843
v 0.916214 1.222525 -0.312900
v 1.029486 1.063899 -0.332398
v 0.835112 1.304070 -0.145794
v 1.156705 0.804438 -0.591321
v 0.096363 1.143261 -1.101248
v 0.017111 1.064827 -1.141552
v -0.122291 1.189582 -0.999237
v -0.498271 0.647617 -1.136328
v -0.075809 1.384644 -0.768142
v -0.435334 0.295702 -1.209404
v 0.070152 0.196541 -1.342782
v 0.376307 -0.060301 -1.373304
v 0.015402 -0.106618 -1.338799
v 0.612868 -0.042354 -1.305344
v 0.833790 -0.060575 -1.116322
v 0.159776 1.076179 1.055412
v 0.129240 0.538540 1.317740
v 0.319691 0.213995 1.380194
v 0.038877 0.183956 1.399122
v 0.223470 -0.030378 1.349222
v -0.099157 -0.036624 1.353526
v 0.436740 -0.009046 1.346531
v 0.650792 -0.007101 1.280137
v 0.614120 0.194996 1.248806
v 1.290485 -0.110302 -0.265658
v 1.304368 -0.109637 0.263726
v 1.179199 -0.074408 0.755843
v 0.861345 -0.027743 1.141265
v -0.932781 -0.117827 -0.991322
v -0.492762 -0.126040 -1.226925
vt 0.258483 0.357851
vt 0.231652 0.320508
vt 0.268412 0.301383
vt 0.305687 0.361351
vt 0.367966 0.450433
vt 0.269235 0.468117
vt 0.612254 0.368049
vt 0.611283 0.263488
vt 0.716628 0.333543
vt 0.857649 0.691398
vt 0.688126 0.741329
vt 0.648593 0.539302
vt 0.331666 0.664266
vt 0.397006 0.660375
vt 0.270769 0.843928
vt 0.184937 0.735362
vt 0.306771 0.572828
vt 0.001396 0.484479
vt 0.225223 0.435722
vt 0.244500 0.491946
vt 0.168350 0.612279
vt 0.024504 0.363645
vt 0.515182 0.692819
vt 0.496791 0.504344
vt 0.504318 0.552063
vt 0.461334 0.533135
vt 0.457663 0.481036
vt 0.477482 0.453684
vt 0.571793 0.507233
vt 0.530494 0.527570
vt 0.638695 0.506445
vt 0.571028 0.538719
vt 0.712182 0.492273
vt 0.786741 0.572405
vt 0.843314 0.505353
vt 0.770325 0.447069
vt 0.837522 0.441151
vt 0.941525 0.716849
vt 0.835480 0.848066
vt 0.873966 0.587513
vt 0.991386 0.598478
vt 0.990459 0.421004
vt 0.810138 0.381474
vt 0.925058 0.250812
vt 0.772629 0.316632
vt 0.716374 0.246622
vt 0.804489 0.110678
vt 0.626865 0.186940
vt 0.694669 0.448117
vt 0.787956 0.791671
vt 0.672200 0.816971
vt 0.591045 0.681160
vt 0.551779 0.618569
vt 0.560173 0.571001
vt 0.528122 0.587491
vt 0.503109 0.576193
vt 0.421327 0.542958
vt 0.427002 0.518615
vt 0.340878 0.514955
vt 0.433699 0.378990
vt 0.305504 0.524001
vt 0.286118 0.332284
vt 0.408399 0.343524
vt 0.417281 0.319950
vt 0.506090 0.229488
vt 0.449800 0.346999
vt 0.459736 0.393000
vt 0.323840 0.141500
vt 0.183032 0.123853
vt 0.304043 0.039206
vt 0.477882 0.135870
vt 0.059663 0.273814
vt 0.125393 0.188643
vt 0.223877 0.364427
vt 0.367236 0.537723
vt 0.520468 0.624452
vt 0.546619 0.690168
vt 0.535614 0.755727
vt 0.586661 0.807599
vt 0.571756 0.907316
vt 0.655386 0.887592
vt 0.621812 0.980581
vt 0.731916 0.936035
vt 0.542383 0.987014
vt 0.461106 0.987014
vt 0.471992 0.913689
vt 0.018425 0.621895
vt 0.092195 0.785563
vt 0.215034 0.907222
vt 0.372044 0.974188
vt 0.661494 0.036460
vt 0.490840 0.000099
vt 0.392435 0.910580
vn 0.558245 0.451064 -0.696310
vn 0.509476 0.057588 -0.858516
vn 0.109928 0.199500 -0.973693
vn 0.360302 0.694082 -0.623188
vn 0.421277 0.779717 -0.463149
vn 0.714225 0.603778 -0.353954
vn -0.620716 0.712210 -0.327738
vn -0.626148 0.590533 -0.509079
vn -0.746117 0.603687 -0.280740
vn -0.588794 0.151616 0.793908
vn -0.342326 0.468886 0.814173
vn -0.551714 0.627155 0.549760
vn 0.784875 0.528367 0.323649
vn 0.711570 0.548143 0.439497
vn 0.810968 0.309793 0.496323
vn 0.956755 0.218879 0.191504
vn 0.850276 0.461531 0.252907
vn 0.932992 0.005714 -0.359851
vn 0.860988 0.225013 -0.456099
vn 0.940886 0.308725 -0.139164
vn 0.976165 0.213752 -0.037111
vn 0.822096 -0.074020 -0.564517
vn 0.564776 0.509110 0.649434
vn -0.241218 0.964629 -0.106174
vn 0.036134 0.953673 0.298563
vn 0.385784 0.912839 0.133488
vn 0.170782 0.919401 -0.354259
vn -0.328288 0.869594 -0.368786
vn -0.567492 0.808344 -0.156529
vn -0.329081 0.940336 0.086123
vn -0.654439 0.755303 0.034303
vn -0.463179 0.858669 0.219306
vn -0.736869 0.622333 0.263894
vn -0.604327 0.473220 0.640919
vn -0.861812 0.236641 0.448622
vn -0.858394 0.501724 0.106693
vn -0.962981 0.168035 0.210700
vn -0.666663 -0.135297 0.732977
vn -0.292790 -0.144396 0.945211
vn -0.787896 0.139500 0.599750
vn -0.843274 -0.078432 0.531731
vn -0.967894 -0.005955 0.251287
vn -0.965880 0.258827 -0.007416
vn -0.988280 0.030768 -0.149519
vn -0.925016 0.308329 -0.221870
vn -0.834651 0.290139 -0.468154
vn -0.874303 0.044129 -0.483371
vn -0.651021 0.258858 -0.713523
vn -0.704581 0.688711 -0.170843
vn -0.335978 0.128025 0.933103
vn -0.093234 0.266182 0.959380
vn -0.276009 0.509812 0.814783
vn -0.177740 0.648061 0.740532
vn -0.314066 0.781671 0.538804
vn 0.044527 0.854091 0.518174
vn 0.343150 0.829798 0.440046
vn 0.690023 0.695578 0.199957
vn 0.500137 0.834101 -0.232551
vn 0.678945 0.713858 -0.171453
vn -0.011414 0.808374 -0.588488
vn 0.885678 0.454451 0.094852
vn 0.223640 0.453841 -0.862545
vn 0.041658 0.634358 -0.771874
vn -0.189337 0.427107 -0.884121
vn -0.420179 0.340465 -0.841121
vn -0.439802 0.641621 -0.628346
vn -0.728446 0.626850 -0.276406
vn -0.156194 0.099094 -0.982727
vn 0.062688 0.007853 -0.998002
vn -0.178145 0.029980 -0.983547
vn -0.326518 0.109653 -0.938780
vn 0.703868 -0.137075 -0.696979
vn 0.434698 -0.098273 -0.895198
vn 0.783044 0.070772 -0.617908
vn 0.749779 0.622364 0.224586
vn 0.363842 0.691580 0.623920
vn 0.175878 0.527451 0.831172
vn 0.387005 0.428144 0.816614
vn 0.116245 0.359844 0.925718
vn 0.227546 0.124760 0.965728
vn 0.010010 -0.015778 0.999817
vn 0.043550 -0.165846 0.985189
vn -0.060392 -0.165680 0.984329
vn 0.246459 0.030291 0.968680
vn 0.435814 0.214589 0.874081
vn 0.473403 0.285379 0.833308
vn 0.987972 0.000604 -0.154631
vn 0.993777 -0.018711 0.109802
vn 0.882457 0.106891 0.458088
vn 0.654970 0.211929 0.725328
vn -0.644496 0.064574 -0.761876
vn -0.350172 0.080025 -0.933261
vn 0.646748 0.337260 0.684042
s 1
f 1/1/1 4/2/2 5/3/3
f 7/4/4 8/5/5 9/6/6
f 7/4/4 9/6/6 1/1/1
f 10/7/7 11/8/8 12/9/9
f 16/10/10 17/11/11 18/12/12
f 20/13/13 21/14/14 15/15/15
f 20/13/13 23/16/16 22/17/17
f 24/18/18 25/19/19 67/20/20
f 24/18/18 67/20/20 26/21/21
f 24/18/18 27/22/22 25/19/19
f 21/14/14 29/23/23 15/15/15
f 30/24/24 31/25/25 61/26/26
f 30/24/24 32/27/27 33/28/28
f 30/24/24 35/29/29 34/30/30
f 35/29/29 37/31/31 36/32/32
f 37/31/31 18/12/12 36/32/32
f 38/33/33 19/34/34 18/12/12
f 38/33/33 40/35/35 19/34/34
f 40/35/35 39/36/36 41/37/37
f 16/10/10 43/38/38 44/39/39
f 16/10/10 42/40/40 43/38/38
f 46/41/41 42/40/40 40/35/35
f 47/42/42 40/35/35 41/37/37
f 47/42/42 41/37/37 48/43/43
f 49/44/44 48/43/43 50/45/45
f 49/44/44 50/45/45 51/46/46
f 52/47/47 51/46/46 53/48/48
f 51/46/46 50/45/45 12/9/9
f 51/46/46 12/9/9 11/8/8
f 12/9/9 39/36/36 54/49/49
f 12/9/9 54/49/49 10/7/7
f 12/9/9 50/45/45 48/43/43
f 48/43/43 41/37/37 39/36/36
f 54/49/49 35/29/29 10/7/7
f 45/50/50 55/51/51 17/11/11
f 17/11/11 55/51/51 56/52/52
f 56/52/52 57/53/53 17/11/11
f 57/53/53 58/54/54 18/12/12
f 58/54/54 57/53/53 59/55/55
f 58/54/54 59/55/55 31/25/25
f 59/55/55 28/56/56 31/25/25
f 61/26/26 62/57/57 63/58/58
f 63/58/58 62/57/57 64/59/59
f 63/58/58 64/59/59 8/5/5
f 32/27/27 8/5/5 6/60/60
f 64/59/59 65/61/61 9/6/6
f 9/6/6 67/20/20 25/19/19
f 7/4/4 1/1/1 3/62/62
f 7/4/4 3/62/62 68/63/63
f 69/64/64 3/62/62 5/3/3
f 69/64/64 71/65/65 70/66/66
f 70/66/66 71/65/65 11/8/8
f 70/66/66 11/8/8 10/7/7
f 72/67/67 70/66/66 33/28/28
f 72/67/67 33/28/28 6/60/60
f 71/65/65 69/64/64 5/3/3
f 71/65/65 5/3/3 74/68/68
f 74/68/68 5/3/3 75/69/69
f 74/68/68 76/70/70 73/71/71
f 78/72/72 77/73/73 4/2/2
f 78/72/72 2/74/74 27/22/22
f 4/2/2 77/73/73 5/3/3
f 70/66/66 6/60/60 68/63/63
f 7/4/4 68/63/63 6/60/60
f 65/61/61 22/17/17 67/20/20
f 65/61/61 66/75/75 22/17/17
f 22/17/17 66/75/75 62/57/57
f 22/17/17 62/57/57 21/14/14
f 62/57/57 61/26/26 60/76/76
f 29/23/23 79/77/77 13/78/78
f 79/77/77 60/76/76 57/53/53
f 80/79/79 79/77/77 56/52/52
f 80/79/79 81/80/80 13/78/78
f 80/79/79 55/51/51 82/81/81
f 82/81/81 83/82/82 81/80/80
f 84/83/83 82/81/81 44/39/39
f 85/84/84 86/85/85 87/86/86
f 88/87/87 26/21/21 89/88/88
f 89/88/88 23/16/16 90/89/89
f 90/89/89 15/15/15 91/90/90
f 92/91/91 53/48/48 93/92/92
f 91/90/90 14/93/93 87/86/86
f 4/2/2 1/1/1 2/74/74
f 3/62/62 1/1/1 5/3/3
f 45/50/50 17/11/11 16/10/10
f 87/86/86 14/93/93 13/78/78
f 19/34/34 16/10/10 18/12/12
f 23/16/16 26/21/21 22/17/17
f 23/16/16 20/13/13 15/15/15
f 26/21/21 88/87/87 24/18/18
f 27/22/22 2/74/74 25/19/19
f 29/23/23 14/93/93 15/15/15
f 29/23/23 21/14/14 60/76/76
f 32/27/27 30/24/24 61/26/26
f 35/29/29 30/24/24 33/28/28
f 34/30/30 35/29/29 36/32/32
f 18/12/12 58/54/54 36/32/32
f 37/31/31 54/49/49 38/33/33
f 18/12/12 37/31/31 38/33/33
f 40/35/35 38/33/33 39/36/36
f 40/35/35 42/40/40 19/34/34
f 19/34/34 42/40/40 16/10/10
f 45/50/50 16/10/10 44/39/39
f 42/40/40 46/41/41 43/38/38
f 47/42/42 46/41/41 40/35/35
f 49/44/44 47/42/42 48/43/43
f 52/47/47 49/44/44 51/46/46
f 92/91/91 52/47/47 53/48/48
f 53/48/48 51/46/46 11/8/8
f 39/36/36 12/9/9 48/43/43
f 54/49/49 37/31/31 35/29/29
f 39/36/36 38/33/33 54/49/49
f 45/50/50 82/81/81 55/51/51
f 57/53/53 18/12/12 17/11/11
f 36/32/32 58/54/54 31/25/25
f 36/32/32 31/25/25 34/30/30
f 28/56/56 59/55/55 60/76/76
f 60/76/76 59/55/55 57/53/53
f 61/26/26 28/56/56 60/76/76
f 28/56/56 61/26/26 31/25/25
f 62/57/57 66/75/75 64/59/59
f 63/58/58 32/27/27 61/26/26
f 32/27/27 63/58/58 8/5/5
f 64/59/59 9/6/6 8/5/5
f 65/61/61 67/20/20 9/6/6
f 65/61/61 64/59/59 66/75/75
f 25/19/19 1/1/1 9/6/6
f 1/1/1 25/19/19 2/74/74
f 3/62/62 69/64/64 68/63/63
f 33/28/28 32/27/27 6/60/60
f 70/66/66 72/67/67 6/60/60
f 33/28/28 70/66/66 10/7/7
f 73/71/71 71/65/65 74/68/68
f 76/70/70 74/68/68 75/69/69
f 76/70/70 93/92/92 73/71/71
f 2/74/74 78/72/72 4/2/2
f 77/73/73 75/69/69 5/3/3
f 69/64/64 70/66/66 68/63/63
f 8/5/5 7/4/4 6/60/60
f 20/13/13 22/17/17 21/14/14
f 22/17/17 26/21/21 67/20/20
f 21/14/14 62/57/57 60/76/76
f 79/77/77 29/23/23 60/76/76
f 79/77/77 80/79/79 13/78/78
f 55/51/51 80/79/79 56/52/52
f 81/80/80 87/86/86 13/78/78
f 81/80/80 80/79/79 82/81/81
f 83/82/82 85/84/84 81/80/80
f 83/82/82 82/81/81 84/83/83
f 82/81/81 45/50/50 44/39/39
f 81/80/80 85/84/84 87/86/86
f 56/52/52 79/77/77 57/53/53
f 13/78/78 14/93/93 29/23/23
f 10/7/7 35/29/29 33/28/28
f 30/24/24 34/30/30 31/25/25
f 26/21/21 23/16/16 89/88/88
f 23/16/16 15/15/15 90/89/89
f 15/15/15 14/93/93 91/90/90
f 53/48/48 11/8/8 71/65/65
f 53/48/48 73/71/71 93/92/92
f 73/71/71 53/48/48 71/65/65
f 86/85/85 91/90/90 87/86/86
