# Blender v2.69 (sub 0) OBJ File: ''
# www.blender.org
o stone3_Group1.002
v 0.794859 0.769798 -1.198564
v 0.800304 0.552567 -1.278578
v 0.605321 0.656556 -1.329263
v 0.046466 1.220904 -1.060982
v 1.132762 0.841558 -0.709359
v -1.279083 0.523497 -0.378645
v -0.945047 0.466709 -0.921148
v 0.193622 0.988781 1.106514
v 1.135074 0.189632 0.757620
v -0.671370 0.189333 1.290179
v -0.141594 0.846863 1.147217
v -1.202932 0.372464 0.740896
v 0.886927 0.864546 0.447514
v 0.997364 0.953555 -0.080871
v 1.288361 -0.105664 -0.342014
v 1.340806 0.271742 0.075272
v 0.936171 -0.069124 -1.015755
v -0.007884 1.698198 -0.140478
v 0.035373 1.616911 0.502108
v 0.317491 1.690881 -0.107275
v -0.400768 1.515616 0.502738
v -0.971387 1.069227 0.387705
v -1.346861 0.541999 0.189854
v -0.906874 -0.058844 1.062720
v -0.479634 -0.022324 1.318004
v -1.130158 -0.085541 0.790123
v -1.347172 -0.081768 0.360470
v -1.386837 -0.088155 -0.137198
v -1.207038 -0.110380 -0.618986
v 0.004824 0.459356 1.362978
v -0.091181 1.487197 0.718178
v 0.199561 1.354505 0.839270
v 0.414183 1.670373 0.092742
v 0.949150 1.199455 -0.281908
v -0.106169 1.238507 -0.964911
v -0.498271 0.647617 -1.136328
v -0.487277 -0.125755 -1.232018
v 0.025917 -0.104972 -1.356065
v 0.376307 -0.060301 -1.373304
v 0.612868 -0.042354 -1.305344
v 0.248672 0.203048 1.399321
v 0.129969 -0.039326 1.366361
v 0.495926 -0.003801 1.343541
v 1.304368 -0.109637 0.263726
v 1.179199 -0.074408 0.755843
v 0.819794 -0.018844 1.196388
v -0.932781 -0.117827 -0.991322
vt 0.266408 0.358438
vt 0.230072 0.329434
vt 0.274946 0.312787
vt 0.440902 0.500339
vt 0.250867 0.464785
vt 0.817000 0.749882
vt 0.626278 0.702997
vt 0.580254 0.538245
vt 0.358493 0.662668
vt 0.177672 0.681453
vt 0.306771 0.572828
vt 0.014314 0.588723
vt 0.039765 0.324654
vt 0.519743 0.633838
vt 0.270769 0.843928
vt 0.495374 0.491354
vt 0.514649 0.568559
vt 0.455290 0.534619
vt 0.683044 0.491298
vt 0.853430 0.543256
vt 0.941525 0.716849
vt 0.835480 0.848066
vt 0.990459 0.421004
vt 0.805183 0.412051
vt 0.925058 0.250812
vt 0.739483 0.298029
vt 0.804489 0.110678
vt 0.623790 0.202047
vt 0.631317 0.812492
vt 0.334861 0.524895
vt 0.420443 0.352368
vt 0.506090 0.229488
vt 0.451734 0.355955
vt 0.304281 0.040438
vt 0.183032 0.123853
vt 0.125393 0.188643
vt 0.542932 0.712132
vt 0.556147 0.593817
vt 0.593295 0.902236
vt 0.653841 0.967623
vt 0.092195 0.785563
vt 0.215034 0.907222
vt 0.383774 0.963229
vt 0.661494 0.036460
vt 0.490815 0.000358
vt 0.991386 0.598478
vt 0.521546 0.987014
vn 0.527512 0.518174 -0.673208
vn 0.596789 0.069918 -0.799310
vn 0.130833 0.279397 -0.951201
vn 0.257118 0.941252 -0.218787
vn 0.838923 0.427045 -0.337321
vn -0.458449 0.122898 0.880154
vn -0.271310 0.499405 0.822748
vn -0.495102 0.804163 0.328898
vn 0.755699 0.521744 0.395825
vn 0.974487 0.204382 0.092532
vn 0.848720 0.475234 0.231941
vn 0.965888 -0.005652 -0.258900
vn 0.812000 -0.079663 -0.578195
vn 0.340129 0.658223 0.671590
vn 0.810175 0.316813 0.493149
vn -0.253243 0.945006 -0.206885
vn 0.048036 0.933103 0.356304
vn 0.457015 0.872066 0.174963
vn -0.703299 0.675893 0.220222
vn -0.799921 0.245308 0.547624
vn -0.692128 -0.057780 0.719459
vn -0.222589 -0.089477 0.970798
vn -0.969951 0.007674 0.243180
vn -0.935881 0.341655 0.085818
vn -0.988249 0.052973 -0.143376
vn -0.854244 0.399976 -0.332041
vn -0.871454 0.060178 -0.486772
vn -0.667287 0.327342 -0.668966
vn -0.032502 0.281747 0.958922
vn 0.763787 0.645192 -0.017945
vn -0.031190 0.675619 -0.736564
vn -0.396558 0.327158 -0.857692
vn -0.429212 0.716910 -0.549333
vn -0.163582 0.127048 -0.978315
vn 0.067215 0.039775 -0.996945
vn 0.439167 -0.090850 -0.893800
vn 0.266396 0.508774 0.818628
vn -0.181860 0.733696 0.654653
vn 0.173864 0.120212 0.977386
vn -0.027278 -0.121567 0.992208
vn 0.988732 -0.021245 0.148178
vn 0.888949 0.122275 0.441383
vn 0.584294 0.357714 0.728451
vn -0.641691 0.078130 -0.762973
vn -0.352565 0.108285 -0.929501
vn -0.829313 -0.072218 0.554098
vn 0.338685 0.154564 0.928118
s 1
f 1/1/1 2/2/2 3/3/3
f 1/1/1 20/4/4 5/5/5
f 10/6/6 11/7/7 21/8/8
f 13/9/9 16/10/10 14/11/11
f 15/12/12 5/5/5 16/10/10
f 15/12/12 17/13/13 5/5/5
f 13/9/9 32/14/14 9/15/15
f 18/16/16 19/17/17 33/18/18
f 18/16/16 22/19/19 21/8/8
f 22/19/19 12/20/20 21/8/8
f 10/6/6 24/21/21 25/22/22
f 10/6/6 12/20/20 24/21/21
f 27/23/23 12/20/20 23/24/24
f 28/25/25 23/24/24 6/26/26
f 29/27/27 6/26/26 7/28/28
f 6/26/26 23/24/24 22/19/19
f 22/19/19 18/16/16 6/26/26
f 10/6/6 30/29/29 11/7/7
f 20/4/4 33/18/18 34/30/30
f 1/1/1 3/3/3 4/31/31
f 4/31/31 36/32/32 35/33/33
f 35/33/33 36/32/32 7/28/28
f 35/33/33 7/28/28 6/26/26
f 35/33/33 18/16/16 4/31/31
f 36/32/32 4/31/31 3/3/3
f 36/32/32 3/3/3 38/34/34
f 38/34/34 3/3/3 39/35/35
f 17/13/13 40/36/36 2/2/2
f 2/2/2 40/36/36 3/3/3
f 34/30/30 14/11/11 5/5/5
f 14/11/11 34/30/30 33/18/18
f 14/11/11 33/18/18 13/9/9
f 8/37/37 32/14/14 31/38/38
f 30/29/29 8/37/37 11/7/7
f 30/29/29 41/39/39 8/37/37
f 42/40/40 41/39/39 25/22/22
f 15/12/12 16/10/10 44/41/41
f 44/41/41 16/10/10 45/42/42
f 45/42/42 9/15/15 46/43/43
f 47/44/44 7/28/28 37/45/45
f 12/20/20 10/6/6 21/8/8
f 16/10/10 13/9/9 9/15/15
f 17/13/13 2/2/2 5/5/5
f 32/14/14 46/43/43 9/15/15
f 20/4/4 18/16/16 33/18/18
f 12/20/20 22/19/19 23/24/24
f 12/20/20 26/46/46 24/21/21
f 27/23/23 26/46/46 12/20/20
f 28/25/25 27/23/23 23/24/24
f 29/27/27 28/25/25 6/26/26
f 47/44/44 29/27/27 7/28/28
f 10/6/6 41/39/39 30/29/29
f 31/38/38 21/8/8 11/7/7
f 21/8/8 31/38/38 19/17/17
f 32/14/14 19/17/17 31/38/38
f 33/18/18 19/17/17 32/14/14
f 34/30/30 5/5/5 20/4/4
f 1/1/1 5/5/5 2/2/2
f 18/16/16 20/4/4 4/31/31
f 18/16/16 35/33/33 6/26/26
f 37/45/45 36/32/32 38/34/34
f 40/36/36 39/35/35 3/3/3
f 20/4/4 1/1/1 4/31/31
f 14/11/11 16/10/10 5/5/5
f 13/9/9 33/18/18 32/14/14
f 41/39/39 46/43/43 8/37/37
f 42/40/40 43/47/47 41/39/39
f 41/39/39 10/6/6 25/22/22
f 41/39/39 43/47/47 46/43/43
f 11/7/7 8/37/37 31/38/38
f 8/37/37 46/43/43 32/14/14
f 18/16/16 21/8/8 19/17/17
f 16/10/10 9/15/15 45/42/42
f 37/45/45 7/28/28 36/32/32
