# Blender v2.69 (sub 0) OBJ File: ''
# www.blender.org
o stone5_Group1.004
v 0.964266 -0.102380 -0.550232
v 1.018527 0.334056 -0.190859
v 0.911681 0.671061 -0.555335
v 0.788485 0.548322 -0.866302
v 0.671843 0.462507 -1.021150
v 0.585144 0.682416 0.351158
v 0.868308 0.596607 -0.099609
v 0.750587 0.464500 0.293213
v -0.855680 0.553393 -0.638407
v -0.846661 0.471146 -0.805305
v -0.644875 0.676735 -0.495265
v -0.446519 0.709177 -0.669670
v 0.810556 0.825893 -0.444343
v 0.627593 0.557767 -0.997430
v -0.379479 1.775747 0.284868
v -0.434883 1.496341 0.414113
v -0.321866 1.514736 0.574305
v -0.282599 1.779970 0.444285
v -0.478866 1.542450 0.180721
v -0.593404 0.851101 0.209085
v -0.750177 0.569816 -0.056636
v 0.177860 1.820683 -0.257372
v 0.216144 1.901045 -0.107393
v 0.435404 1.692251 -0.134225
v 0.317648 1.631224 -0.326551
v 0.035933 1.671240 -0.415586
v -0.132246 1.929941 -0.099014
v -0.305131 1.822402 -0.120212
v -0.230992 1.939396 0.138013
v -0.119714 1.840266 -0.264942
v -0.443838 1.627697 -0.048979
v -0.257426 0.951557 -0.602015
v -0.446192 0.931952 -0.466040
v -0.223303 1.589279 -0.394005
v 0.521671 1.350836 0.285877
v 0.288271 1.594373 0.504448
v -0.526559 0.901773 -0.282322
v -0.400385 1.516262 -0.246860
v -0.122559 1.820087 0.491058
v -0.074798 1.976183 0.161160
v 0.118530 1.961617 0.150482
v -0.034580 1.088770 -0.662311
v 0.159984 1.189278 -0.598171
v 0.164840 0.869677 -0.766708
v 0.332217 0.661052 -0.891269
v 0.566230 0.406710 -1.070662
v 0.239937 0.391493 -0.994405
v -0.145586 0.276506 -1.029641
v -0.446672 0.382128 -0.994790
v -0.487831 0.201795 -1.095990
v -0.978027 0.229006 -0.836771
v -0.530615 -0.035005 -1.059275
v -0.854279 -0.036415 -0.885994
v -1.250840 0.132839 -0.514416
v -1.165242 0.444715 -0.474224
v -1.324675 0.214567 -0.160572
v -1.237941 0.368012 -0.131137
v -1.092786 0.376107 0.200587
v -0.947491 0.467178 0.527346
v -0.574529 0.664410 0.629500
v -0.108766 0.682021 0.835172
v -0.365648 0.925356 0.625294
v -0.507065 0.926621 0.488846
v -0.711747 0.678069 0.401411
v -0.138216 1.506156 0.674628
v 0.078831 1.496703 0.681479
v 0.100004 1.838246 0.464260
v 0.336326 1.873952 0.185354
v 0.528793 1.572659 0.088774
v 0.638267 1.190897 -0.228296
v 0.743324 0.990027 -0.280173
v 0.905928 0.712914 -0.343472
v 0.780076 0.976730 -0.195860
v 0.371066 -0.107151 -1.139375
v 0.160988 -0.100611 -1.126792
v -0.214965 -0.050924 -1.122125
v 0.548704 -0.118185 -1.065038
v 0.782576 -0.124401 -0.858016
v 1.081857 -0.104715 -0.248232
v 1.108789 -0.124808 0.181672
v 0.990043 -0.130003 0.671537
v 0.849560 0.093518 1.103937
v 0.871039 -0.077101 1.132679
v 0.562342 0.208480 1.438569
v 0.580550 -0.023036 1.537076
v 0.189961 0.215241 1.580465
v 0.184780 -0.058390 1.688164
v -0.268347 0.217835 1.489816
v -0.212325 -0.085391 1.578330
v -0.590925 -0.096190 1.324242
v -0.625578 0.070685 1.328904
v -0.941546 -0.124101 0.962314
v -0.961538 0.112591 0.993006
v -1.120369 0.109868 0.558624
v -1.061290 -0.124669 0.638855
v -1.185230 -0.087324 0.222517
v -1.259580 -0.030731 -0.148450
v -1.202721 -0.008918 -0.476488
v -1.061008 0.263741 0.622742
v -0.878798 0.302677 0.994353
v -0.599804 0.223229 1.254169
v -0.104912 0.550070 1.067665
v -0.362606 0.504546 0.895777
v 0.201936 0.503598 1.315877
v 0.113062 0.686824 0.838713
v 0.094692 0.876147 0.762895
v -0.109700 0.891030 0.753545
v 0.276043 0.811714 0.659947
v 0.265457 0.654947 0.750326
v 0.696733 0.409234 0.530875
v 0.722569 0.383664 0.929301
v 0.888457 0.229562 0.625885
v 1.039798 0.214168 0.199720
v 0.502716 0.492966 1.159196
vt 0.354766 0.039945
vt 0.445686 0.245479
vt 0.312955 0.226883
vt 0.503118 0.189707
vt 0.331877 0.417372
vt 0.341667 0.306787
vt 0.438945 0.435618
vt 0.288580 0.371067
vt 0.789366 0.486442
vt 0.718067 0.475115
vt 0.714612 0.407438
vt 0.515565 0.485042
vt 0.516397 0.509233
vt 0.497851 0.509183
vt 0.511817 0.433947
vt 0.503838 0.440333
vt 0.492346 0.423813
vt 0.507708 0.414786
vt 0.531571 0.427667
vt 0.518366 0.455227
vt 0.529327 0.461772
vt 0.513229 0.468825
vt 0.526542 0.446461
vt 0.635201 0.403121
vt 0.648796 0.449067
vt 0.549310 0.442045
vt 0.588166 0.259481
vt 0.586111 0.576142
vt 0.532327 0.497368
vt 0.644339 0.493905
vt 0.540713 0.476276
vt 0.556468 0.463555
vt 0.503581 0.487378
vt 0.494116 0.481580
vt 0.506195 0.463843
vt 0.498587 0.456195
vt 0.591221 0.378974
vt 0.557077 0.368985
vt 0.592268 0.322204
vt 0.548927 0.198730
vt 0.580757 0.166423
vt 0.653541 0.200556
vt 0.762769 0.238576
vt 0.802772 0.326818
vt 0.859644 0.295490
vt 0.911395 0.463468
vt 0.826785 0.450159
vt 0.945337 0.265773
vt 0.991994 0.410281
vt 0.915107 0.593238
vt 0.831281 0.566008
vt 0.845178 0.672550
vt 0.803804 0.648080
vt 0.719548 0.682972
vt 0.686132 0.582836
vt 0.613132 0.733812
vt 0.522111 0.667590
vt 0.395820 0.623645
vt 0.478777 0.592528
vt 0.527677 0.594460
vt 0.590099 0.646222
vt 0.479248 0.504873
vt 0.463267 0.493013
vt 0.485185 0.471040
vt 0.487012 0.449164
vt 0.469791 0.424083
vt 0.436040 0.335759
vt 0.467612 0.364819
vt 0.449164 0.322049
vt 0.465209 0.281642
vt 0.417299 0.272929
vt 0.547528 0.171855
vt 0.671367 0.027035
vt 0.754038 0.068525
vt 0.862536 0.161673
vt 0.480324 0.003438
vt 0.251836 0.100376
vt 0.138579 0.200002
vt 0.217294 0.280201
vt 0.045311 0.347812
vt 0.070616 0.519078
vt 0.000099 0.513645
vt 0.098737 0.658147
vt 0.019857 0.696872
vt 0.161578 0.764753
vt 0.093132 0.840410
vt 0.269423 0.830949
vt 0.221617 0.925031
vt 0.383297 0.967369
vt 0.397983 0.909014
vt 0.568896 0.972246
vt 0.546406 0.889133
vt 0.682788 0.832779
vt 0.820828 0.829556
vt 0.906533 0.723670
vt 0.962075 0.616141
vt 0.638676 0.800679
vt 0.529032 0.830096
vt 0.403323 0.854373
vt 0.347571 0.685021
vt 0.429120 0.706325
vt 0.346489 0.583927
vt 0.390057 0.552555
vt 0.357752 0.515495
vt 0.461450 0.466573
vt 0.426307 0.580035
vt 0.319173 0.535221
vt 0.239465 0.420610
vt 0.160532 0.404638
vt 0.170525 0.506835
vt 0.198484 0.598567
vt 0.238462 0.681001
vt 0.605649 0.008282
vt 0.693487 0.926514
vn 0.918919 0.069260 -0.388317
vn 0.854366 0.415845 -0.311594
vn 0.959838 0.276315 -0.047975
vn 0.740135 0.377728 -0.556291
vn 0.774163 0.278695 0.568285
vn 0.882656 0.376446 0.281381
vn 0.834620 0.228614 0.501053
vn 0.703269 0.594562 0.389691
vn -0.431745 0.871181 -0.233619
vn -0.610309 0.769280 -0.188879
vn -0.322581 0.645924 -0.691855
vn -0.797693 0.560320 0.222938
vn -0.882717 0.237007 0.405683
vn -0.636738 0.274941 0.720359
vn 0.300699 0.723594 -0.621235
vn 0.369884 0.867519 -0.332469
vn 0.754082 0.560991 -0.341441
vn 0.532579 0.457472 -0.712058
vn 0.054903 0.517747 -0.853725
vn -0.197943 0.922544 -0.331187
vn -0.671987 0.645985 -0.362072
vn -0.483108 0.873165 0.064302
vn -0.228156 0.734428 -0.639149
vn -0.423505 0.366741 -0.828303
vn -0.715659 0.443983 -0.539140
vn -0.468337 0.430280 -0.771661
vn -0.012024 0.604144 -0.796747
vn -0.915830 0.401135 0.017060
vn -0.967162 0.245094 0.066836
vn -0.903500 0.385266 -0.187597
vn -0.910581 0.362712 -0.198035
vn -0.806299 0.320933 -0.496841
vn -0.552171 0.616535 0.561174
vn -0.169073 0.725578 0.667013
vn -0.074679 0.988800 0.129032
vn 0.197516 0.975982 0.091800
vn -0.200873 0.337992 -0.919431
vn 0.331523 0.397778 -0.855464
vn 0.458235 0.638386 -0.618427
vn 0.230415 0.622974 -0.747520
vn 0.099582 0.220588 -0.970244
vn -0.159612 0.365612 -0.916959
vn 0.033876 0.457839 -0.888363
vn -0.076296 0.598712 -0.797296
vn -0.226539 0.242714 -0.943266
vn -0.632527 0.140019 -0.761773
vn -0.429426 0.596149 -0.678335
vn -0.354524 -0.081144 -0.931519
vn -0.568312 -0.129570 -0.812547
vn -0.902310 -0.077273 -0.424085
vn -0.671407 0.704642 -0.229408
vn -0.992950 0.113834 0.032228
vn -0.691824 0.711081 0.125401
vn -0.560656 0.815455 0.143712
vn -0.670583 0.741630 -0.015564
vn -0.667440 0.716056 0.204260
vn -0.494858 0.644856 0.582446
vn -0.228278 0.630482 0.741844
vn -0.533311 0.264168 0.803583
vn -0.804682 0.360515 0.471664
vn -0.729270 0.668783 0.144444
vn -0.232917 0.304849 0.923460
vn 0.275155 0.291543 0.916105
vn 0.261086 0.729118 0.632588
vn 0.646321 0.731986 0.215522
vn 0.892117 0.421491 0.162633
vn 0.909543 0.415509 0.005066
vn 0.668874 0.407544 -0.621662
vn 0.667226 0.588794 -0.456160
vn 0.439283 0.731162 -0.521897
vn 0.983490 0.166570 0.070467
vn 0.564226 0.183569 -0.804926
vn 0.089963 0.148067 -0.984877
vn -0.003437 0.258961 -0.965882
vn -0.042574 0.057183 -0.997456
vn 0.783008 -0.042366 -0.620567
vn 0.962379 0.166938 -0.214380
vn 0.978686 0.178717 0.101163
vn 0.892605 0.408612 0.190405
vn 0.958855 0.170586 0.226930
vn 0.853511 0.342967 0.392224
vn 0.890246 0.197602 0.410385
vn 0.558214 0.496872 0.664449
vn 0.559362 0.350433 0.751206
vn 0.070864 0.518479 0.852138
vn 0.028451 0.337846 0.940771
vn -0.368847 0.503372 0.781365
vn -0.397917 0.188569 0.897833
vn -0.578145 -0.081945 0.811809
vn -0.581439 0.114566 0.805444
vn -0.844156 -0.139074 0.517744
vn -0.828944 0.101901 0.549944
vn -0.952239 0.039064 0.302805
vn -0.976892 -0.037372 0.210443
vn -0.972123 -0.230573 0.042573
vn -0.859004 -0.365373 -0.358629
vn -0.859584 0.409040 0.306192
vn -0.592181 0.581164 0.558153
vn -0.464583 0.627461 0.624805
vn -0.285623 0.845363 0.451399
vn -0.322520 0.780663 0.535234
vn 0.194861 0.742607 0.640706
vn 0.275857 0.262459 0.924650
vn 0.650227 0.245186 0.719047
vn 0.656362 0.348582 0.669057
vn -0.223151 0.242073 0.944212
vn 0.562578 0.696036 0.446059
vn 0.612049 0.770104 0.179724
vn 0.719443 0.671224 0.178381
vn 0.687704 0.701193 0.187994
vn 0.479446 0.796167 0.369060
vn 0.045412 0.822047 0.567553
vn 0.516589 -0.050391 -0.854750
vn -0.939399 -0.127812 0.318108
s 1
f 1/1/1 3/2/2 2/3/3
f 1/1/1 4/4/4 3/2/2
f 6/5/5 7/6/6 35/7/7
f 7/6/6 6/5/5 8/8/8
f 9/9/9 11/10/10 12/11/11
f 15/12/12 16/13/13 17/14/14
f 22/15/15 23/16/16 24/17/17
f 22/15/15 25/18/18 26/19/19
f 27/20/20 28/21/21 29/22/22
f 28/21/21 27/20/20 30/23/23
f 32/24/24 33/25/25 34/26/26
f 32/24/24 12/11/11 33/25/25
f 32/24/24 45/27/27 12/11/11
f 20/28/28 19/29/29 37/30/30
f 37/30/30 33/25/25 11/10/10
f 37/30/30 11/10/10 20/28/28
f 37/30/30 31/31/31 38/32/32
f 38/32/32 31/31/31 28/21/21
f 31/31/31 19/29/29 15/12/12
f 31/31/31 15/12/12 28/21/21
f 29/22/22 18/33/33 39/34/34
f 40/35/35 41/36/36 23/16/16
f 40/35/35 27/20/20 29/22/22
f 27/20/20 23/16/16 30/23/23
f 30/23/23 22/15/15 26/19/19
f 34/26/26 26/19/19 42/37/37
f 42/37/37 43/38/38 44/39/39
f 42/37/37 44/39/39 45/27/27
f 45/27/27 14/40/40 46/41/41
f 47/42/42 48/43/43 12/11/11
f 49/44/44 48/43/43 50/45/45
f 49/44/44 50/45/45 51/46/46
f 49/44/44 10/47/47 12/11/11
f 51/46/46 50/45/45 52/48/48
f 51/46/46 53/49/49 54/50/50
f 51/46/46 54/50/50 55/51/51
f 55/51/51 54/50/50 56/52/52
f 55/51/51 56/52/52 57/53/53
f 55/51/51 57/53/53 58/54/54
f 58/54/54 21/55/55 9/9/9
f 58/54/54 59/56/56 21/55/55
f 60/57/57 61/58/58 62/59/59
f 60/57/57 63/60/60 64/61/61
f 63/60/60 62/59/59 16/13/13
f 63/60/60 16/13/13 19/29/29
f 17/14/14 62/59/59 65/62/62
f 65/62/62 66/63/63 39/34/34
f 65/62/62 39/34/34 18/33/33
f 67/64/64 68/65/65 41/36/36
f 67/64/64 41/36/36 40/35/35
f 68/65/65 24/17/17 23/16/16
f 68/65/65 23/16/16 41/36/36
f 24/17/17 69/66/66 73/67/67
f 24/17/17 73/67/67 70/68/68
f 70/68/68 25/18/18 24/17/17
f 25/18/18 70/68/68 43/38/38
f 43/38/38 70/68/68 71/69/69
f 43/38/38 71/69/69 44/39/39
f 71/69/69 13/70/70 45/27/27
f 3/2/2 71/69/69 73/67/67
f 69/66/66 7/6/6 73/67/67
f 69/66/66 35/7/7 7/6/6
f 72/71/71 7/6/6 3/2/2
f 72/71/71 73/67/67 7/6/6
f 3/2/2 4/4/4 13/70/70
f 14/40/40 4/4/4 5/72/72
f 46/41/41 74/73/73 47/42/42
f 75/74/74 50/45/45 48/43/43
f 76/75/75 52/48/48 50/45/45
f 78/76/76 4/4/4 1/1/1
f 79/77/77 2/3/3 80/78/78
f 80/78/78 113/79/79 81/80/80
f 81/80/80 82/81/81 83/82/82
f 83/82/82 82/81/81 84/83/83
f 85/84/84 84/83/83 86/85/85
f 87/86/86 86/85/85 88/87/87
f 89/88/88 88/87/87 90/89/89
f 90/89/89 91/90/90 92/91/91
f 92/91/91 93/92/92 94/93/93
f 96/94/94 94/93/93 97/95/95
f 97/95/95 56/52/52 98/96/96
f 94/93/93 99/97/97 56/52/52
f 99/97/97 58/54/54 57/53/53
f 99/97/97 94/93/93 93/92/92
f 100/98/98 93/92/92 101/99/99
f 101/99/99 102/100/100 103/101/101
f 101/99/99 103/101/101 100/98/98
f 61/58/58 102/100/100 105/102/102
f 102/100/100 61/58/58 103/101/101
f 61/58/58 105/102/102 106/103/103
f 106/103/103 108/104/104 36/105/105
f 106/103/103 66/63/63 107/106/106
f 108/104/104 6/5/5 35/7/7
f 6/5/5 108/104/104 109/107/107
f 109/107/107 110/108/108 8/8/8
f 110/108/108 112/109/109 113/79/79
f 110/108/108 113/79/79 8/8/8
f 113/79/79 112/109/109 82/81/81
f 112/109/109 111/110/110 82/81/81
f 111/110/110 114/111/111 82/81/81
f 114/111/111 111/110/110 109/107/107
f 114/111/111 109/107/107 105/102/102
f 104/112/112 88/87/87 86/85/85
f 104/112/112 86/85/85 84/83/83
f 109/107/107 108/104/104 105/102/102
f 78/76/76 5/72/72 4/4/4
f 78/76/76 77/113/113 5/72/72
f 77/113/113 74/73/73 46/41/41
f 69/66/66 68/65/65 35/7/7
f 67/64/64 66/63/63 36/105/105
f 8/8/8 113/79/79 7/6/6
f 10/47/47 9/9/9 12/11/11
f 45/27/27 13/70/70 14/40/40
f 18/33/33 15/12/12 17/14/14
f 16/13/13 15/12/12 19/29/29
f 21/55/55 64/61/61 20/28/28
f 25/18/18 22/15/15 24/17/17
f 7/6/6 2/3/3 3/2/2
f 33/25/25 38/32/32 34/26/26
f 12/11/11 11/10/10 33/25/25
f 19/29/29 31/31/31 37/30/30
f 11/10/10 21/55/55 20/28/28
f 37/30/30 38/32/32 33/25/25
f 34/26/26 38/32/32 28/21/21
f 15/12/12 18/33/33 29/22/22
f 28/21/21 15/12/12 29/22/22
f 40/35/35 29/22/22 39/34/34
f 27/20/20 40/35/35 23/16/16
f 23/16/16 22/15/15 30/23/23
f 26/19/19 34/26/26 30/23/23
f 30/23/23 34/26/26 28/21/21
f 26/19/19 43/38/38 42/37/37
f 42/37/37 32/24/24 34/26/26
f 32/24/24 42/37/37 45/27/27
f 47/42/42 45/27/27 46/41/41
f 47/42/42 12/11/11 45/27/27
f 48/43/43 49/44/44 12/11/11
f 10/47/47 49/44/44 51/46/46
f 53/49/49 51/46/46 52/48/48
f 53/49/49 98/96/96 54/50/50
f 10/47/47 51/46/46 55/51/51
f 55/51/51 9/9/9 10/47/47
f 9/9/9 55/51/51 58/54/54
f 21/55/55 11/10/10 9/9/9
f 59/56/56 64/61/61 21/55/55
f 59/56/56 100/98/98 60/57/57
f 64/61/61 59/56/56 60/57/57
f 60/57/57 103/101/101 61/58/58
f 63/60/60 60/57/57 62/59/59
f 63/60/60 20/28/28 64/61/61
f 62/59/59 17/14/14 16/13/13
f 20/28/28 63/60/60 19/29/29
f 62/59/59 107/106/106 65/62/62
f 66/63/63 67/64/64 39/34/34
f 17/14/14 65/62/62 18/33/33
f 68/65/65 67/64/64 36/105/105
f 39/34/34 67/64/64 40/35/35
f 69/66/66 24/17/17 68/65/65
f 43/38/38 26/19/19 25/18/18
f 44/39/39 71/69/69 45/27/27
f 71/69/69 3/2/2 13/70/70
f 72/71/71 3/2/2 73/67/67
f 71/69/69 70/68/68 73/67/67
f 4/4/4 14/40/40 13/70/70
f 46/41/41 14/40/40 5/72/72
f 74/73/73 75/74/74 47/42/42
f 50/45/45 75/74/74 76/75/75
f 47/42/42 75/74/74 48/43/43
f 79/77/77 1/1/1 2/3/3
f 2/3/3 113/79/79 80/78/78
f 113/79/79 82/81/81 81/80/80
f 85/84/84 83/82/82 84/83/83
f 87/86/86 85/84/84 86/85/85
f 89/88/88 87/86/86 88/87/87
f 88/87/87 91/90/90 90/89/89
f 91/90/90 93/92/92 92/91/91
f 95/114/114 92/91/91 94/93/93
f 96/94/94 95/114/114 94/93/93
f 94/93/93 56/52/52 97/95/95
f 56/52/52 54/50/50 98/96/96
f 58/54/54 99/97/97 59/56/56
f 56/52/52 99/97/97 57/53/53
f 100/98/98 99/97/97 93/92/92
f 59/56/56 99/97/97 100/98/98
f 93/92/92 91/90/90 101/99/99
f 102/100/100 101/99/99 88/87/87
f 103/101/101 60/57/57 100/98/98
f 105/102/102 102/100/100 104/112/112
f 107/106/106 61/58/58 106/103/103
f 107/106/106 62/59/59 61/58/58
f 66/63/63 106/103/103 36/105/105
f 66/63/63 65/62/62 107/106/106
f 36/105/105 108/104/104 35/7/7
f 109/107/107 8/8/8 6/5/5
f 112/109/109 110/108/108 111/110/110
f 2/3/3 7/6/6 113/79/79
f 114/111/111 84/83/83 82/81/81
f 111/110/110 110/108/108 109/107/107
f 104/112/112 114/111/111 105/102/102
f 114/111/111 104/112/112 84/83/83
f 88/87/87 104/112/112 102/100/100
f 108/104/104 106/103/103 105/102/102
f 101/99/99 91/90/90 88/87/87
f 5/72/72 77/113/113 46/41/41
f 68/65/65 36/105/105 35/7/7
