# Blender v2.69 (sub 0) OBJ File: ''
# www.blender.org
o stone7_Group1.006
v 1.241616 0.105253 -0.309052
v 0.943567 0.435561 -0.423490
v 0.791068 1.086984 0.254106
v 0.949280 0.404314 0.210228
v 0.980574 1.080197 -0.006837
v 0.976923 1.076475 -0.269594
v 0.801663 0.883142 -0.484475
v -0.580704 0.588431 -0.195428
v -0.815771 -0.171285 -0.567354
v -0.532767 -0.091828 -0.664446
v -0.105156 0.778220 1.243895
v 0.332742 0.675030 1.326699
v -0.358804 -0.095903 1.162842
v -0.428047 0.328559 0.904103
v -0.115751 0.596522 1.406364
v 0.826834 -0.078004 0.800968
v 0.715862 -0.060306 0.995205
v 0.873651 -0.091024 0.631195
v 1.060605 0.560375 -0.121320
v 1.266459 0.093860 0.041376
v -0.249439 0.602351 0.641545
v 0.008357 0.791658 0.700984
v -0.054275 2.047732 0.013594
v -0.213659 1.901475 -0.040617
v -0.140013 1.956011 -0.252756
v 0.034886 1.841569 -0.434780
v -0.608206 0.693333 0.174033
v -0.248396 1.263224 0.439746
v 0.266042 1.906517 0.001255
v 1.170183 -0.121135 -0.249812
v 1.045045 -0.088563 -0.372385
v 0.481720 0.317370 -0.819425
v 0.178481 0.699052 -0.568462
v 0.164886 2.019685 -0.195285
v -0.241843 0.700962 -0.482110
v -0.555289 0.719971 0.372252
v 0.077250 0.854742 0.629454
v 0.272104 0.690969 0.620060
v 0.492639 0.414952 0.535797
v 0.257521 0.830924 1.132979
v 0.389507 0.431764 1.352453
v 0.429976 -0.033150 1.273422
v 0.029605 -0.087365 1.348984
v -0.722824 -0.125265 0.823051
v -0.718081 0.101401 0.848065
v -0.889266 0.228880 0.542273
v -0.897505 -0.091562 0.287811
v -0.957794 0.260381 0.043052
v -0.989800 -0.033682 -0.020930
v -0.933255 0.196283 -0.270499
v -0.967684 -0.032942 -0.327784
v -0.772077 0.518196 0.558683
v 0.064472 -0.055611 -0.888014
v -0.285307 -0.169150 -0.848226
v 0.391321 -0.063898 -0.874315
v 1.221428 -0.148568 -0.054525
vt 0.759164 0.900222
vt 0.587984 0.802439
vt 0.712244 0.725362
vt 0.220229 0.883391
vt 0.174722 0.836806
vt 0.338507 0.717302
vt 0.219667 0.408212
vt 0.340019 0.473200
vt 0.236834 0.504980
vt 0.249170 0.609820
vt 0.340756 0.512401
vt 0.448900 0.486013
vt 0.370493 0.549474
vt 0.096262 0.460659
vt 0.097689 0.567746
vt 0.032500 0.386425
vt 0.452826 0.475886
vt 0.452750 0.461393
vt 0.464251 0.470970
vt 0.519600 0.538862
vt 0.462079 0.481006
vt 0.640328 0.535601
vt 0.630846 0.633586
vt 0.537835 0.662350
vt 0.492939 0.648445
vt 0.441442 0.678510
vt 0.513286 0.765995
vt 0.515192 0.807532
vt 0.499538 0.856713
vt 0.463430 0.987238
vt 0.304148 0.941146
vt 0.915679 0.701077
vt 0.830698 0.558897
vt 0.949637 0.464405
vt 0.802600 0.389779
vt 0.901282 0.334903
vt 0.780548 0.283448
vt 0.844221 0.221282
vt 0.794193 0.097463
vt 0.739403 0.561566
vt 0.648786 0.465967
vt 0.571862 0.765253
vt 0.839712 0.673904
vt 0.625702 0.361220
vt 0.384432 0.056162
vt 0.542631 0.000097
vt 0.664827 0.073453
vt 0.245025 0.110239
vt 0.297126 0.255655
vt 0.422941 0.320472
vt 0.008196 0.461845
vt 0.002295 0.549633
vt 0.634232 0.982262
vt 0.334534 0.427872
vt 0.470546 0.478649
vt 0.531778 0.335710
vn -0.640477 0.073268 0.764474
vn -0.421552 0.304788 0.854030
vn -0.647481 0.516068 0.560686
vn 0.838788 0.510751 0.188595
vn 0.750529 0.482513 0.451539
vn 0.754051 0.453658 0.474929
vn 0.709952 0.160192 -0.685781
vn 0.828028 0.395245 -0.397595
vn 0.965911 0.258644 -0.009980
vn 0.714652 0.321909 0.620960
vn 0.883724 0.387677 0.262062
vn 0.548936 0.687277 0.475631
vn 0.599384 0.359935 0.714927
vn 0.830683 0.047334 -0.554674
vn 0.948485 0.109928 0.297098
vn 0.545250 -0.117116 -0.830052
vn 0.380718 0.882015 -0.277566
vn -0.077639 0.473434 -0.877377
vn -0.583544 0.654469 -0.480728
vn -0.451155 0.465529 0.761376
vn -0.202002 0.880459 0.428846
vn -0.673482 0.594592 0.439131
vn -0.493149 0.604419 0.625660
vn -0.142094 0.850124 0.507004
vn 0.309641 0.475539 0.823359
vn 0.619312 0.633656 0.463546
vn 0.398999 0.901883 0.165471
vn 0.532426 0.530106 0.659902
vn 0.540117 0.096500 0.836024
vn 0.483530 -0.105621 0.868932
vn 0.829715 0.169057 0.531971
vn -0.821117 -0.096526 0.562539
vn -0.936155 0.118625 0.330912
vn -0.969883 -0.090990 0.225939
vn -0.930692 0.365276 -0.018403
vn -0.991209 0.098586 0.088235
vn -0.775567 0.445875 -0.446822
vn -0.871971 0.237895 -0.427869
vn -0.520015 0.403751 -0.752708
vn -0.649739 0.633229 0.420454
vn -0.858028 0.512406 -0.034333
vn -0.473495 0.802301 0.363384
vn -0.706534 0.182470 0.683706
vn -0.755882 0.471999 -0.453627
vn -0.211693 0.357447 -0.909625
vn -0.295224 0.671226 -0.679925
vn -0.367880 0.375516 -0.850677
vn 0.300097 0.065851 -0.951633
vn 0.242409 0.252663 -0.936674
vn -0.103519 0.306650 -0.946165
vn 0.789059 -0.376082 -0.485746
vn 0.953609 -0.286440 0.092636
vn -0.124004 -0.139827 0.982380
vn 0.460341 0.256386 -0.849879
vn -0.838923 0.503891 0.205573
vn -0.454390 0.287484 -0.843104
s 1
f 13/1/1 15/2/2 14/3/3
f 16/4/4 18/5/5 39/6/6
f 2/7/7 6/8/8 19/9/9
f 4/10/10 39/6/6 18/5/5
f 5/11/11 29/12/12 3/13/13
f 5/11/11 6/8/8 29/12/12
f 1/14/14 19/9/9 20/15/15
f 1/14/14 2/7/7 19/9/9
f 1/14/14 31/16/16 2/7/7
f 34/17/17 26/18/18 25/19/19
f 28/20/20 23/21/21 36/22/22
f 28/20/20 21/23/23 22/24/24
f 28/20/20 22/24/24 37/25/25
f 37/25/25 29/12/12 23/21/21
f 3/13/13 37/25/25 38/26/26
f 3/13/13 39/6/6 4/10/10
f 39/6/6 38/26/26 40/27/27
f 40/27/27 12/28/28 16/4/4
f 41/29/29 42/30/30 17/31/31
f 44/32/32 46/33/33 47/34/34
f 47/34/34 48/35/35 49/36/36
f 49/36/36 48/35/35 50/37/37
f 51/38/38 50/37/37 9/39/39
f 48/35/35 46/33/33 52/40/40
f 52/40/40 36/22/22 27/41/41
f 36/22/22 52/40/40 14/3/3
f 37/25/25 22/24/24 38/26/26
f 22/24/24 40/27/27 38/26/26
f 11/42/42 40/27/27 22/24/24
f 14/3/3 52/40/40 45/43/43
f 45/43/43 52/40/40 46/33/33
f 27/41/41 8/44/44 48/35/35
f 53/45/45 54/46/46 10/47/47
f 55/48/48 53/45/45 32/49/49
f 32/49/49 53/45/45 33/50/50
f 26/18/18 34/17/17 6/8/8
f 30/51/51 1/14/14 56/52/52
f 56/52/52 20/15/15 18/5/5
f 5/11/11 3/13/13 4/10/10
f 11/42/42 12/28/28 40/27/27
f 14/3/3 11/42/42 22/24/24
f 13/1/1 43/53/53 15/2/2
f 6/8/8 2/7/7 7/54/54
f 20/15/15 4/10/10 18/5/5
f 8/44/44 25/19/19 26/18/18
f 8/44/44 27/41/41 24/55/55
f 25/19/19 8/44/44 24/55/55
f 27/41/41 36/22/22 24/55/55
f 6/8/8 34/17/17 29/12/12
f 5/11/11 4/10/10 19/9/9
f 6/8/8 5/11/11 19/9/9
f 31/16/16 1/14/14 30/51/51
f 31/16/16 55/48/48 32/49/49
f 2/7/7 31/16/16 32/49/49
f 7/54/54 2/7/7 32/49/49
f 26/18/18 6/8/8 7/54/54
f 26/18/18 7/54/54 33/50/50
f 25/19/19 23/21/21 34/17/17
f 35/56/56 26/18/18 33/50/50
f 26/18/18 35/56/56 8/44/44
f 23/21/21 24/55/55 36/22/22
f 36/22/22 21/23/23 28/20/20
f 28/20/20 37/25/25 23/21/21
f 29/12/12 37/25/25 3/13/13
f 39/6/6 3/13/13 38/26/26
f 40/27/27 16/4/4 39/6/6
f 12/28/28 17/31/31 16/4/4
f 17/31/31 12/28/28 41/29/29
f 13/1/1 45/43/43 44/32/32
f 45/43/43 46/33/33 44/32/32
f 46/33/33 48/35/35 47/34/34
f 51/38/38 49/36/36 50/37/37
f 48/35/35 52/40/40 27/41/41
f 21/23/23 36/22/22 14/3/3
f 22/24/24 21/23/23 14/3/3
f 15/2/2 12/28/28 11/42/42
f 11/42/42 14/3/3 15/2/2
f 45/43/43 13/1/1 14/3/3
f 8/44/44 50/37/37 48/35/35
f 8/44/44 9/39/39 50/37/37
f 15/2/2 43/53/53 41/29/29
f 41/29/29 12/28/28 15/2/2
f 42/30/30 41/29/29 43/53/53
f 35/56/56 9/39/39 8/44/44
f 35/56/56 10/47/47 9/39/39
f 35/56/56 33/50/50 53/45/45
f 10/47/47 35/56/56 53/45/45
f 7/54/54 32/49/49 33/50/50
f 1/14/14 20/15/15 56/52/52
f 19/9/9 4/10/10 20/15/15
f 34/17/17 23/21/21 29/12/12
f 25/19/19 24/55/55 23/21/21
