# Blender v2.69 (sub 0) OBJ File: ''
# www.blender.org
o stone6_Group1.005
v 0.494726 0.793627 0.134537
v 0.617918 0.871618 -0.139879
v 0.447525 1.167511 0.033257
v 0.740363 0.457945 -0.062876
v 0.605912 0.536384 0.167502
v -0.290236 0.258003 1.350124
v -0.380406 0.324584 1.183874
v -0.427793 0.111657 1.204804
v -0.188893 1.287487 0.272484
v 0.021652 1.265497 0.334023
v -0.275883 1.273028 0.248780
v -0.231709 1.243005 0.406497
v 0.096501 0.923435 0.583319
v 0.353571 0.703384 0.380929
v 0.429566 1.198918 -0.186248
v 0.455586 1.214134 -0.072479
v 0.351988 1.282776 -0.163354
v -0.615298 0.414174 -0.717914
v -0.841953 0.408950 -0.554191
v -0.195029 0.438774 -0.700877
v -0.370006 0.301206 -0.862642
v 0.593278 0.348128 -0.864530
v 0.481359 0.359886 -0.908011
v 0.529918 0.442761 -0.869159
v -0.714124 0.464165 -0.400412
v -0.548760 0.570675 -0.359789
v -0.518816 0.559544 -0.528431
v -1.017325 0.360450 -0.329677
v -0.030693 0.850975 1.389511
v 0.190247 0.802162 1.456585
v -0.089822 0.764871 1.504780
v 0.374566 0.870538 1.116959
v -0.233791 0.657901 1.467119
v -0.147034 0.682646 1.545324
v -0.200687 0.545936 1.512070
v 0.434336 0.668152 1.481379
v 0.391806 0.610819 1.517443
v 0.466102 0.694762 1.412808
v 0.638546 0.677368 -0.438309
v 0.618279 0.839956 -0.264023
v 0.169867 0.707237 -0.651123
v 0.889698 0.115639 0.215313
v 0.769092 0.495370 -0.487597
v 0.822166 0.341090 -0.221213
v 0.943185 -0.115278 -0.097977
v 0.706966 0.414724 -0.701542
v 0.823042 -0.105342 -0.507992
v 0.420152 0.531912 0.471122
v -0.094512 1.304128 -0.330171
v -0.021932 1.354835 -0.242652
v 0.046380 1.322806 -0.334584
v 0.027938 1.210510 -0.424343
v -0.109669 1.165028 -0.423158
v -0.221674 0.764447 -0.526058
v -0.383848 0.771364 -0.414362
v -0.212097 1.153149 -0.368457
v 0.053062 0.531994 -0.706629
v 0.623143 0.319038 1.064241
v 0.653037 0.247725 0.764715
v 0.687167 0.084171 1.052530
v 0.622547 -0.044481 1.207642
v 0.506527 0.427459 1.402062
v 0.799862 -0.009337 0.687752
v 0.763914 -0.098190 0.917095
v 0.735978 0.127658 0.633728
v 0.551064 -0.030537 1.300420
v 0.472404 -0.024310 1.373623
v 0.357832 -0.037977 1.419315
v 0.175246 -0.066102 1.449004
v -0.067085 -0.084087 1.440807
v -0.273235 -0.087640 1.320722
v -0.319107 0.022796 1.303024
v -0.688038 -0.125797 0.988632
v -0.685497 -0.004594 1.021599
v -0.846939 -0.128887 0.754891
v -0.888443 0.034956 0.749130
v -0.906637 -0.129113 0.571309
v -0.995098 0.053660 0.305191
v -0.985555 -0.109304 0.278396
v -1.076868 -0.056926 -0.041748
v -1.108561 0.073628 -0.032535
v -1.054995 -0.025668 -0.352566
v -1.102045 0.144226 -0.396533
v -0.891253 -0.044343 -0.602510
v -0.888560 0.118824 -0.687384
v -0.698319 -0.047586 -0.789482
v -0.548903 -0.046544 -0.875001
v -0.438750 0.155073 -0.934702
v -0.157487 -0.063020 -0.964226
v 0.207238 0.099407 -0.928102
v 0.181574 -0.105868 -0.975185
v 0.299011 -0.106949 -0.985578
v 0.466605 -0.115857 -0.925722
v 0.598360 -0.124946 -0.817081
v 0.949621 -0.128654 0.192304
v 0.873269 -0.000147 0.473522
v 0.893662 -0.130245 0.479814
v 0.813047 -0.128535 0.676230
v 0.659355 0.301484 0.416242
v 0.388119 0.584782 0.592571
v 0.318915 0.849796 0.962769
v 0.436610 0.808389 1.256534
v 0.389016 0.790447 1.375702
v 0.205145 0.697489 1.545077
v 0.311771 0.602582 1.552456
v 0.171587 0.579173 1.581725
v -0.048579 0.526491 1.576937
v -0.031147 0.663668 1.582042
v -0.285948 0.640570 1.332921
v -0.375944 0.424560 1.042040
v -0.315030 0.531854 0.903509
v -0.246089 0.737719 1.263395
v -0.170325 0.819431 1.178656
v -0.019534 0.923849 1.168482
v -0.170556 0.819551 1.356609
v 0.124041 0.946455 1.119973
v 0.108447 0.927385 1.241236
v 0.340890 0.896175 1.201269
v 0.250657 0.931776 1.087645
v -0.020104 0.800473 0.798720
v -0.210455 0.620393 0.732163
v -0.040163 0.791918 0.718957
v -0.406248 0.409853 0.770170
v -0.436052 0.309901 1.000183
v -0.511899 0.256115 0.971260
v -0.570316 0.162597 1.056114
v -0.686813 0.112696 0.994774
v -0.824025 0.242986 0.761948
v -0.869664 0.154466 0.768052
v -0.969179 0.209018 0.316715
v -1.100037 0.225020 -0.004355
v -0.893067 0.279775 -0.618330
v -0.961195 0.301674 0.125505
v -0.884872 0.329432 0.286433
v -0.590867 0.577790 0.400457
v -0.622558 0.497631 0.035305
v -0.790117 0.383637 0.517743
v -0.471061 0.756173 0.386836
v -0.494950 0.546777 0.546715
v -0.368971 0.724870 0.520897
v -0.301320 1.086906 0.477283
v -0.229439 0.654626 0.635136
v -0.076674 0.830081 0.664043
v -0.010418 0.929277 0.642201
v 0.048079 0.841021 0.696912
v 0.143640 0.825571 0.617127
v 0.088811 0.826462 0.785171
v 0.186363 0.784971 0.699052
v -0.018635 1.184475 0.520919
v -0.136858 1.145315 0.548036
v -0.358290 1.119907 0.376276
v -0.393472 1.122171 0.192867
v -0.495936 0.732102 -0.064304
v -0.379800 1.101824 -0.080027
v -0.311572 1.129593 -0.265366
v -0.237258 1.285669 -0.156724
v 0.347265 1.292894 -0.054467
v 0.165033 1.216124 -0.366731
v 0.030088 0.916167 -0.573250
v 0.366838 0.591606 -0.683908
v 0.252503 0.513121 -0.775208
v -0.103381 0.191953 -0.895667
v 0.638319 0.493586 -0.758362
v 0.723224 0.587114 -0.505504
v 0.733300 0.639140 -0.306391
v 0.491640 1.001076 -0.246612
v 0.090055 1.222943 0.402745
v 0.129726 1.145027 0.434303
v -0.715765 0.344833 0.698715
v -0.064829 0.182144 1.495659
vt 0.356946 0.573479
vt 0.313559 0.506986
vt 0.398429 0.513852
vt 0.240416 0.574839
vt 0.741624 0.770101
vt 0.740389 0.709731
vt 0.816944 0.732664
vt 0.493099 0.597775
vt 0.401033 0.627638
vt 0.508455 0.180997
vt 0.398843 0.235659
vt 0.424576 0.152935
vt 0.185633 0.342603
vt 0.203643 0.316220
vt 0.217032 0.344557
vt 0.591850 0.254897
vt 0.554340 0.296762
vt 0.519251 0.260766
vt 0.611725 0.750888
vt 0.625492 0.761128
vt 0.590885 0.777600
vt 0.317715 0.481180
vt 0.267979 0.447328
vt 0.345895 0.351165
vt 0.207865 0.453018
vt 0.179149 0.540874
vt 0.017390 0.626367
vt 0.000138 0.455122
vt 0.384600 0.677812
vt 0.446424 0.433398
vt 0.432158 0.442588
vt 0.424935 0.424748
vt 0.445792 0.326952
vt 0.492955 0.338964
vt 0.459347 0.409530
vt 0.343472 0.289641
vt 0.411175 0.929371
vt 0.450752 0.856959
vt 0.464269 1.000484
vt 0.362554 0.807598
vt 0.262753 0.877127
vt 0.320470 0.967500
vt 0.843237 0.840370
vt 0.812901 0.786993
vt 0.950722 0.639625
vt 0.968237 0.516905
vt 0.903251 0.509557
vt 0.959503 0.434190
vt 0.861397 0.345296
vt 0.918137 0.316065
vt 0.846306 0.203271
vt 0.804765 0.230997
vt 0.759919 0.115346
vt 0.714097 0.158811
vt 0.663955 0.039358
vt 0.614394 0.093965
vt 0.548722 0.003772
vt 0.466744 0.000098
vt 0.428531 0.094623
vt 0.291177 0.048453
vt 0.213539 0.189595
vt 0.153739 0.121016
vt 0.101042 0.173619
vt 0.076503 0.756413
vt 0.167214 0.710818
vt 0.193979 0.816879
vt 0.154900 0.854806
vt 0.224643 0.915740
vt 0.295503 0.819311
vt 0.291459 0.722052
vt 0.419113 0.693346
vt 0.537837 0.751452
vt 0.546793 0.776702
vt 0.558903 0.802184
vt 0.564240 0.784816
vt 0.569722 0.807858
vt 0.600414 0.793321
vt 0.590262 0.813466
vt 0.577309 0.815008
vt 0.555717 0.874531
vt 0.562770 0.995878
vt 0.616876 0.992781
vt 0.614278 0.807962
vt 0.647311 0.796280
vt 0.631221 0.781820
vt 0.641392 0.767874
vt 0.662384 0.773102
vt 0.652109 0.755583
vt 0.661834 0.736211
vt 0.711220 0.668433
vt 0.644040 0.723911
vt 0.622440 0.713088
vt 0.674045 0.638651
vt 0.628370 0.740331
vt 0.592859 0.721594
vt 0.583881 0.742891
vt 0.570386 0.726537
vt 0.552876 0.756194
vt 0.552363 0.734091
vt 0.536707 0.656830
vt 0.569958 0.645024
vt 0.632356 0.604598
vt 0.563106 0.619147
vt 0.711468 0.595079
vt 0.752968 0.656548
vt 0.777441 0.634727
vt 0.820072 0.655965
vt 0.858240 0.619961
vt 0.896453 0.637846
vt 0.826529 0.525012
vt 0.858964 0.519431
vt 0.809749 0.370360
vt 0.766131 0.263769
vt 0.674881 0.216743
vt 0.611221 0.149930
vt 0.727931 0.292586
vt 0.762138 0.387595
vt 0.668258 0.468669
vt 0.641708 0.365932
vt 0.762293 0.469313
vt 0.672061 0.520906
vt 0.612859 0.484995
vt 0.616679 0.525787
vt 0.627983 0.576763
vt 0.555402 0.596469
vt 0.529689 0.625981
vt 0.490787 0.631310
vt 0.525792 0.590437
vt 0.495510 0.659405
vt 0.501368 0.541001
vt 0.519615 0.536254
vt 0.540452 0.519136
vt 0.513561 0.509570
vt 0.536396 0.497786
vt 0.529848 0.468567
vt 0.568258 0.385879
vt 0.508046 0.428483
vt 0.473111 0.443409
vt 0.480424 0.412175
vt 0.509029 0.482757
vt 0.497862 0.493554
vt 0.445129 0.449407
vt 0.413695 0.489506
vt 0.406189 0.477469
vt 0.411832 0.438664
vt 0.398221 0.375779
vt 0.439901 0.411667
vt 0.285451 0.358530
vt 0.288746 0.313578
vt 0.323334 0.156671
vt 0.214557 0.380211
vt 0.239870 0.442577
vt 0.189135 0.395345
vt 0.250873 0.489622
vt 0.390805 0.479773
vt 0.396371 0.494596
vt 0.353021 0.474307
vt 0.474654 0.533718
vt 0.471191 0.549706
vt 0.477696 0.517773
vt 0.776527 0.529891
vt 0.709851 0.848355
vt 0.778103 0.914593
vt 0.697366 0.969769
vt 0.304009 0.618041
vt 0.029735 0.285209
vt 0.064392 0.223421
vt 0.596283 0.192706
vt 0.523708 0.722783
vt 0.515911 1.000169
vn 0.796625 0.332835 0.504532
vn 0.906552 0.385327 0.172216
vn 0.756828 0.487625 0.435163
vn 0.870388 0.426588 0.245796
vn -0.722221 -0.044191 0.690207
vn -0.920530 0.204199 0.333018
vn -0.698264 0.206305 0.685446
vn 0.596026 0.420087 0.684255
vn 0.717490 0.469985 0.514084
vn -0.344432 0.620319 -0.704642
vn -0.071047 0.565539 -0.821619
vn -0.025300 0.601520 -0.798425
vn 0.617786 0.108402 -0.778832
vn 0.070101 0.265572 -0.961516
vn 0.224189 0.550127 -0.804376
vn -0.435194 0.900174 0.015839
vn -0.694479 0.711234 -0.108646
vn -0.547777 0.782617 -0.295633
vn -0.146519 0.888180 0.435438
vn -0.261299 0.701529 0.662954
vn 0.152623 0.769585 0.620014
vn 0.715659 0.567217 -0.407453
vn 0.298166 0.745964 -0.595477
vn 0.146092 0.496597 -0.855556
vn 0.935728 0.269692 -0.227241
vn 0.949522 0.311624 0.035401
vn 0.974188 0.202389 -0.099986
vn 0.914483 0.043456 -0.402283
vn 0.761437 0.601215 0.242286
vn -0.355998 0.756432 -0.548662
vn 0.143590 0.821223 -0.552202
vn 0.074770 0.526261 -0.847011
vn -0.360179 0.434156 -0.825678
vn -0.703360 0.503189 -0.502029
vn -0.582995 0.480514 -0.655110
vn -0.200720 0.423475 -0.883358
vn 0.915067 0.218360 0.339030
vn 0.956236 0.251625 0.149174
vn 0.877522 0.062655 0.475425
vn 0.874081 0.485641 -0.009766
vn 0.927641 0.282785 0.243904
vn 0.947414 0.166393 0.273349
vn -0.545740 -0.093235 0.832752
vn -0.598743 -0.087161 0.796167
vn -0.723929 -0.169931 0.668618
vn -0.872841 -0.205544 0.442607
vn -0.912015 -0.046999 0.407422
vn -0.956228 -0.152840 0.249535
vn -0.959471 -0.003784 0.281747
vn -0.961822 -0.098318 0.255404
vn -0.969130 -0.221166 0.108958
vn -0.985412 -0.116367 0.124058
vn -0.908945 -0.314810 -0.273339
vn -0.940825 0.046632 -0.335612
vn -0.741097 -0.314408 -0.593231
vn -0.671712 0.018464 -0.740562
vn -0.538774 -0.102931 -0.836139
vn -0.402347 -0.057099 -0.913705
vn -0.236213 0.210089 -0.948698
vn -0.029250 0.113530 -0.993104
vn -0.087893 0.291116 -0.952635
vn -0.042332 0.228382 -0.972651
vn 0.070658 0.150785 -0.986038
vn 0.971933 0.223143 0.074518
vn 0.902829 0.399518 0.158849
vn 0.907163 0.318857 0.274453
vn 0.945427 0.161873 0.282781
vn 0.956386 0.097000 0.275530
vn 0.818110 0.546190 0.179785
vn 0.719413 0.617115 0.318674
vn 0.739525 0.648396 -0.180761
vn 0.675680 0.718070 -0.166601
vn 0.782769 0.610157 0.122257
vn 0.829585 0.421308 0.366375
vn 0.441847 0.754448 0.485305
vn 0.614734 0.360210 0.701621
vn 0.168828 0.488449 0.856075
vn 0.301157 0.093722 0.948943
vn 0.492019 0.053865 0.868892
vn 0.829951 0.018372 0.557512
vn 0.549039 -0.125592 0.826307
vn 0.289560 -0.177299 0.940596
vn 0.119297 0.005493 0.992828
vn -0.211921 -0.157079 0.964568
vn -0.091006 0.290078 0.952635
vn -0.487106 0.353801 0.798456
vn -0.623554 -0.127079 0.771355
vn -0.799890 0.307199 0.515519
vn -0.923246 0.319712 0.212897
vn -0.918241 0.392224 0.054201
vn -0.842341 0.538408 0.023621
vn -0.676534 0.724296 -0.132847
vn -0.828333 0.554491 -0.079592
vn -0.583850 0.760033 0.285318
vn -0.352397 0.935728 -0.014313
vn 0.011933 0.949797 0.312601
vn -0.036744 0.995483 -0.087252
vn 0.413648 0.889737 0.192907
vn 0.244575 0.958739 -0.144780
vn -0.003601 0.986602 -0.162908
vn -0.482986 0.868099 -0.114383
vn -0.723380 0.679281 0.123539
vn -0.518143 0.758507 0.395123
vn -0.567278 0.737053 0.367290
vn -0.776482 0.567156 0.274453
vn -0.504349 0.756218 0.416761
vn -0.509232 0.588092 0.628315
vn -0.655354 0.324931 0.681814
vn -0.699088 -0.027528 0.714469
vn -0.662038 0.598498 0.451064
vn -0.857143 0.259102 0.445082
vn -0.876003 0.390790 0.282571
vn -0.894192 0.406446 0.187597
vn -0.668813 0.735374 -0.108951
vn -0.645039 0.401318 -0.650258
vn -0.582873 0.790338 0.188665
vn -0.687460 0.714682 0.128758
vn -0.699545 0.674673 0.235359
vn -0.711600 0.702200 -0.022462
vn -0.662679 0.704245 0.254616
vn -0.491195 0.655019 0.574145
vn -0.845027 0.409528 0.343760
vn -0.576739 0.352916 0.736717
vn -0.596515 0.525651 0.606494
vn -0.408918 0.429731 0.805017
vn 0.112064 0.887600 0.446760
vn 0.637135 0.684683 0.353832
vn 0.119907 0.436842 0.891476
vn 0.481857 0.860683 -0.164281
vn 0.213569 0.676809 0.704459
vn -0.236793 0.516373 0.822932
vn -0.622150 0.355052 0.697714
vn -0.368114 0.799860 0.473983
vn -0.816401 0.445906 0.366894
vn -0.895138 0.443739 0.042238
vn -0.911588 0.398480 -0.100925
vn -0.890591 0.425459 -0.160527
vn -0.592242 0.784143 -0.185278
vn -0.784997 0.467757 -0.406079
vn -0.543199 0.829646 0.128788
vn -0.081332 0.977905 0.192450
vn -0.074984 0.988830 -0.128636
vn 0.400678 0.902768 0.156285
vn 0.455916 0.830805 -0.319193
vn 0.423688 0.530839 -0.733909
vn -0.064974 0.404065 -0.912381
vn -0.331126 0.457381 -0.825312
vn 0.189123 0.751457 -0.632069
vn -0.132054 0.519822 -0.843989
vn 0.038728 0.506699 -0.861232
vn 0.542100 0.599048 -0.589251
vn 0.734672 0.576556 -0.357463
vn 0.861324 0.180853 -0.474715
vn 0.915891 0.401379 -0.002991
vn 0.666951 0.554888 -0.497238
vn 0.773217 0.631001 0.062960
vn 0.451949 0.408521 -0.792962
vn 0.413800 0.761498 0.498825
vn 0.639393 0.433363 0.635060
vn 0.122837 0.951018 0.283639
vn -0.418439 0.784143 0.458205
vn -0.299570 -0.184667 0.936003
vn -0.296976 -0.178209 0.938108
vn 0.078702 -0.200434 0.976541
vn 0.786340 0.485275 0.382244
vn 0.731331 -0.060282 -0.679353
vn 0.471547 -0.016194 -0.881692
vn -0.525590 0.756798 -0.388531
vn 0.522141 0.772362 -0.361614
vn 0.743538 -0.075158 0.664457
s 1
f 1/1/1 2/2/2 3/3/3
f 2/2/2 1/1/1 4/4/4
f 6/5/5 7/6/6 8/7/7
f 13/8/8 14/9/9 1/1/1
f 18/10/10 20/11/11 21/12/12
f 22/13/13 23/14/14 24/15/15
f 25/16/16 26/17/17 27/18/18
f 29/19/19 31/20/20 30/21/21
f 40/22/22 39/23/23 41/24/24
f 43/25/25 44/26/26 45/27/27
f 43/25/25 45/27/27 47/28/28
f 1/1/1 14/9/9 48/29/29
f 49/30/30 51/31/31 52/32/32
f 54/33/33 55/34/34 56/35/35
f 54/33/33 57/36/36 20/11/11
f 54/33/33 18/10/10 27/18/18
f 60/37/37 58/38/38 61/39/39
f 58/38/38 60/37/37 59/40/40
f 63/41/41 60/37/37 64/42/42
f 64/42/42 60/37/37 61/39/39
f 71/43/43 72/44/44 73/45/45
f 75/46/46 73/45/45 76/47/47
f 77/48/48 76/47/47 78/49/49
f 79/50/50 78/49/49 80/51/51
f 80/51/51 81/52/52 82/53/53
f 82/53/53 83/54/54 84/55/55
f 84/55/55 85/56/56 86/57/57
f 87/58/58 86/57/57 85/56/56
f 87/58/58 88/59/59 89/60/60
f 89/60/60 88/59/59 90/61/61
f 91/62/62 90/61/61 92/63/63
f 95/64/64 42/65/65 96/66/66
f 97/67/67 96/66/66 98/68/68
f 96/66/66 65/69/69 63/41/41
f 65/69/69 42/65/65 99/70/70
f 65/69/69 99/70/70 48/29/29
f 65/69/69 48/29/29 100/71/71
f 100/71/71 32/72/72 59/40/40
f 102/73/73 38/74/74 58/38/38
f 38/74/74 102/73/73 103/75/75
f 38/74/74 103/75/75 36/76/76
f 103/75/75 30/21/21 36/76/76
f 104/77/77 105/78/78 36/76/76
f 36/76/76 37/79/79 62/80/80
f 36/76/76 62/80/80 38/74/74
f 62/80/80 37/79/79 67/81/81
f 67/81/81 37/79/79 68/82/82
f 105/78/78 106/83/83 68/82/82
f 107/84/84 106/83/83 108/85/85
f 107/84/84 108/85/85 34/86/86
f 108/85/85 104/77/77 31/20/20
f 108/85/85 31/20/20 34/86/86
f 35/87/87 33/88/88 6/5/5
f 33/88/88 109/89/89 7/6/6
f 110/90/90 109/89/89 112/91/91
f 112/91/91 113/92/92 111/93/93
f 113/92/92 112/91/91 115/94/94
f 113/92/92 115/94/94 114/95/95
f 114/95/95 115/94/94 117/96/96
f 114/95/95 117/96/96 116/97/97
f 117/96/96 118/98/98 119/99/99
f 117/96/96 30/21/21 118/98/98
f 119/99/99 147/100/100 116/97/97
f 120/101/101 121/102/102 113/92/92
f 121/102/102 120/101/101 122/103/103
f 123/104/104 124/105/105 111/93/93
f 124/105/105 123/104/104 125/106/106
f 125/106/106 126/107/107 124/105/105
f 126/107/107 127/108/108 8/7/7
f 127/108/108 74/109/109 8/7/7
f 127/108/108 126/107/107 128/110/110
f 127/108/108 129/111/111 74/109/109
f 129/111/111 128/110/110 130/112/112
f 129/111/111 130/112/112 76/47/47
f 130/112/112 131/113/113 78/49/49
f 131/113/113 83/54/54 81/52/52
f 83/54/54 28/114/114 132/115/115
f 83/54/54 132/115/115 85/56/56
f 133/116/116 131/113/113 130/112/112
f 134/117/117 135/118/118 136/119/119
f 134/117/117 137/120/120 135/118/118
f 135/118/118 137/120/120 139/121/121
f 135/118/118 139/121/121 138/122/122
f 140/123/123 139/121/121 142/124/124
f 140/123/123 142/124/124 143/125/125
f 143/125/125 122/103/103 145/126/126
f 145/126/126 146/127/127 144/128/128
f 145/126/126 122/103/103 120/101/101
f 145/126/126 147/100/100 148/129/129
f 148/129/129 147/100/100 119/99/99
f 146/127/127 48/29/29 14/9/9
f 146/127/127 148/129/129 100/71/71
f 144/128/128 13/8/8 149/130/130
f 144/128/128 150/131/131 143/125/125
f 141/132/132 150/131/131 12/133/133
f 151/134/134 152/135/135 138/122/122
f 153/136/136 152/135/135 154/137/137
f 153/136/136 136/119/119 135/118/118
f 153/136/136 154/137/137 55/34/34
f 153/136/136 55/34/34 26/17/17
f 154/137/137 156/138/138 155/139/139
f 154/137/137 152/135/135 156/138/138
f 11/140/140 152/135/135 151/134/134
f 11/140/140 12/133/133 9/141/141
f 156/138/138 50/142/142 49/30/30
f 156/138/138 49/30/30 56/35/35
f 50/142/142 11/140/140 9/141/141
f 50/142/142 157/143/143 17/144/144
f 51/31/31 17/144/144 158/145/145
f 52/32/32 159/146/146 53/147/147
f 159/146/146 158/145/145 41/24/24
f 159/146/146 41/24/24 57/36/36
f 41/24/24 160/148/148 161/149/149
f 161/149/149 160/148/148 24/15/15
f 161/149/149 24/15/15 23/14/14
f 57/36/36 23/14/14 90/61/61
f 57/36/36 162/150/150 20/11/11
f 162/150/150 88/59/59 21/12/12
f 90/61/61 23/14/14 92/63/63
f 163/151/151 164/152/152 46/153/153
f 163/151/151 46/153/153 22/13/13
f 164/152/152 40/22/22 165/154/154
f 164/152/152 39/23/23 40/22/22
f 40/22/22 15/155/155 16/156/156
f 40/22/22 166/157/157 15/155/155
f 166/157/157 40/22/22 41/24/24
f 166/157/157 158/145/145 15/155/155
f 2/2/2 16/156/156 3/3/3
f 3/3/3 157/143/143 167/158/158
f 3/3/3 16/156/156 157/143/143
f 168/159/159 167/158/158 149/130/130
f 168/159/159 149/130/130 13/8/8
f 167/158/158 10/160/160 149/130/130
f 167/158/158 157/143/143 10/160/160
f 157/143/143 50/142/142 9/141/141
f 143/125/125 142/124/124 121/102/102
f 169/161/161 137/120/120 128/110/110
f 169/161/161 128/110/110 125/106/106
f 137/120/120 134/117/117 128/110/110
f 136/119/119 26/17/17 25/16/16
f 115/94/94 112/91/91 109/89/89
f 115/94/94 33/88/88 31/20/20
f 170/162/162 107/84/84 6/5/5
f 170/162/162 72/44/44 70/163/163
f 170/162/162 70/163/163 69/164/164
f 99/70/70 42/65/65 5/165/165
f 42/65/65 45/27/27 44/26/26
f 94/166/166 93/167/167 22/13/13
f 94/166/166 22/13/13 47/28/28
f 93/167/167 92/63/63 23/14/14
f 88/59/59 85/56/56 18/10/10
f 43/25/25 165/154/154 44/26/26
f 165/154/154 2/2/2 4/4/4
f 4/4/4 1/1/1 5/165/165
f 7/6/6 124/105/105 8/7/7
f 72/44/44 6/5/5 8/7/7
f 10/160/160 9/141/141 12/133/133
f 1/1/1 3/3/3 13/8/8
f 25/16/16 19/168/168 28/114/114
f 73/45/45 74/109/109 76/47/47
f 16/156/156 15/155/155 17/144/144
f 27/18/18 18/10/10 19/168/168
f 18/10/10 132/115/115 19/168/168
f 19/168/168 25/16/16 27/18/18
f 22/13/13 46/153/153 47/28/28
f 30/21/21 117/96/96 29/19/19
f 34/86/86 33/88/88 35/87/87
f 58/38/38 62/80/80 61/39/39
f 42/65/65 4/4/4 5/165/165
f 44/26/26 4/4/4 42/65/65
f 46/153/153 43/25/25 47/28/28
f 5/165/165 1/1/1 48/29/29
f 51/31/31 49/30/30 50/142/142
f 53/147/147 49/30/30 52/32/32
f 53/147/147 56/35/35 49/30/30
f 53/147/147 54/33/33 56/35/35
f 18/10/10 54/33/33 20/11/11
f 55/34/34 54/33/33 27/18/18
f 59/40/40 102/73/73 58/38/38
f 60/37/37 63/41/41 59/40/40
f 64/42/42 98/68/68 63/41/41
f 59/40/40 63/41/41 65/69/69
f 72/44/44 74/109/109 73/45/45
f 77/48/48 75/46/46 76/47/47
f 79/50/50 77/48/48 78/49/49
f 78/49/49 81/52/52 80/51/51
f 81/52/52 83/54/54 82/53/53
f 83/54/54 85/56/56 84/55/55
f 88/59/59 87/58/58 85/56/56
f 91/62/62 89/60/60 90/61/61
f 95/64/64 45/27/27 42/65/65
f 97/67/67 95/64/64 96/66/66
f 96/66/66 63/41/41 98/68/68
f 65/69/69 96/66/66 42/65/65
f 59/40/40 65/69/69 100/71/71
f 100/71/71 101/169/169 32/72/72
f 32/72/72 102/73/73 59/40/40
f 30/21/21 104/77/77 36/76/76
f 104/77/77 106/83/83 105/78/78
f 36/76/76 105/78/78 37/79/79
f 66/170/170 62/80/80 67/81/81
f 66/170/170 61/39/39 62/80/80
f 37/79/79 105/78/78 68/82/82
f 106/83/83 69/164/164 68/82/82
f 107/84/84 170/162/162 106/83/83
f 35/87/87 6/5/5 107/84/84
f 106/83/83 104/77/77 108/85/85
f 35/87/87 107/84/84 34/86/86
f 104/77/77 30/21/21 31/20/20
f 33/88/88 7/6/6 6/5/5
f 109/89/89 110/90/90 7/6/6
f 111/93/93 110/90/90 112/91/91
f 113/92/92 121/102/102 111/93/93
f 115/94/94 29/19/19 117/96/96
f 116/97/97 117/96/96 119/99/99
f 30/21/21 103/75/75 118/98/98
f 119/99/99 118/98/98 32/72/72
f 103/75/75 102/73/73 118/98/98
f 147/100/100 120/101/101 116/97/97
f 116/97/97 120/101/101 114/95/95
f 114/95/95 120/101/101 113/92/92
f 111/93/93 121/102/102 123/104/104
f 121/102/102 142/124/124 123/104/104
f 124/105/105 110/90/90 111/93/93
f 124/105/105 7/6/6 110/90/90
f 126/107/107 8/7/7 124/105/105
f 74/109/109 72/44/44 8/7/7
f 129/111/111 127/108/108 128/110/110
f 129/111/111 76/47/47 74/109/109
f 130/112/112 78/49/49 76/47/47
f 131/113/113 81/52/52 78/49/49
f 83/54/54 131/113/113 28/114/114
f 28/114/114 19/168/168 132/115/115
f 131/113/113 133/116/116 28/114/114
f 133/116/116 25/16/16 28/114/114
f 134/117/117 133/116/116 130/112/112
f 133/116/116 134/117/117 136/119/119
f 137/120/120 169/161/161 139/121/121
f 139/121/121 140/123/123 138/122/122
f 138/122/122 140/123/123 141/132/132
f 144/128/128 143/125/125 145/126/126
f 146/127/127 13/8/8 144/128/128
f 147/100/100 145/126/126 120/101/101
f 146/127/127 145/126/126 148/129/129
f 148/129/129 119/99/99 101/169/169
f 100/71/71 148/129/129 101/169/169
f 13/8/8 146/127/127 14/9/9
f 48/29/29 146/127/127 100/71/71
f 150/131/131 144/128/128 149/130/130
f 150/131/131 141/132/132 143/125/125
f 151/134/134 141/132/132 12/133/133
f 143/125/125 141/132/132 140/123/123
f 152/135/135 153/136/136 138/122/122
f 141/132/132 151/134/134 138/122/122
f 153/136/136 26/17/17 136/119/119
f 138/122/122 153/136/136 135/118/118
f 154/137/137 155/139/139 55/34/34
f 155/139/139 56/35/35 55/34/34
f 55/34/34 27/18/18 26/17/17
f 152/135/135 11/140/140 156/138/138
f 12/133/133 11/140/140 151/134/134
f 155/139/139 156/138/138 56/35/35
f 50/142/142 156/138/138 11/140/140
f 51/31/31 50/142/142 17/144/144
f 17/144/144 15/155/155 158/145/145
f 158/145/145 52/32/32 51/31/31
f 159/146/146 52/32/32 158/145/145
f 159/146/146 54/33/33 53/147/147
f 54/33/33 159/146/146 57/36/36
f 57/36/36 41/24/24 161/149/149
f 160/148/148 163/151/151 24/15/15
f 57/36/36 161/149/149 23/14/14
f 162/150/150 57/36/36 90/61/61
f 162/150/150 21/12/12 20/11/11
f 88/59/59 162/150/150 90/61/61
f 164/152/152 163/151/151 39/23/23
f 164/152/152 43/25/25 46/153/153
f 24/15/15 163/151/151 22/13/13
f 165/154/154 43/25/25 164/152/152
f 40/22/22 2/2/2 165/154/154
f 2/2/2 40/22/22 16/156/156
f 158/145/145 166/157/157 41/24/24
f 168/159/159 3/3/3 167/158/158
f 17/144/144 157/143/143 16/156/156
f 3/3/3 168/159/159 13/8/8
f 10/160/160 12/133/133 149/130/130
f 39/23/23 163/151/151 160/148/148
f 10/160/160 157/143/143 9/141/141
f 150/131/131 149/130/130 12/133/133
f 122/103/103 143/125/125 121/102/102
f 139/121/121 123/104/104 142/124/124
f 123/104/104 139/121/121 169/161/161
f 169/161/161 125/106/106 123/104/104
f 128/110/110 126/107/107 125/106/106
f 134/117/117 130/112/112 128/110/110
f 133/116/116 136/119/119 25/16/16
f 101/169/169 119/99/99 32/72/72
f 115/94/94 31/20/20 29/19/19
f 33/88/88 115/94/94 109/89/89
f 33/88/88 34/86/86 31/20/20
f 6/5/5 72/44/44 170/162/162
f 106/83/83 170/162/162 69/164/164
f 72/44/44 71/43/43 70/163/163
f 118/98/98 102/73/73 32/72/72
f 62/80/80 58/38/38 38/74/74
f 48/29/29 99/70/70 5/165/165
f 39/23/23 160/148/148 41/24/24
f 22/13/13 93/167/167 23/14/14
f 21/12/12 88/59/59 18/10/10
f 18/10/10 85/56/56 132/115/115
f 165/154/154 4/4/4 44/26/26
